<?xml version="1.0" standalone="no"?>
<!DOCTYPE svg PUBLIC "-//W3C//DTD SVG 1.1//EN" "http://www.w3.org/Graphics/SVG/1.1/DTD/svg11.dtd" >
<svg xmlns="http://www.w3.org/2000/svg">
  <metadata>Created by iconfont</metadata>
  <defs>
  <font id="rtdp" horiz-adv-x="1024">
    <font-face
      font-family="rtdp"
      font-weight="400"
      font-stretch="normal"
      units-per-em="1024"
      ascent="896"
      descent="-128"
    />
      <missing-glyph />
      
      <glyph glyph-name="xinzeng" unicode="&#58908;" d="M548 420h376c19.882 0 36-16.118 36-36s-16.118-36-36-36H548v-376c0-19.882-16.118-36-36-36s-36 16.118-36 36V348H100c-19.882 0-36 16.118-36 36s16.118 36 36 36h376V796c0 19.882 16.118 36 36 36s36-16.118 36-36v-376z"  horiz-adv-x="1024" />
      
      <glyph glyph-name="shipin" unicode="&#59167;" d="M493.572336 296.920254m-28.183486 0a28.183486 28.183486 0 1 1 56.366972 0 28.183486 28.183486 0 1 1-56.366972 0ZM572.341567 375.689485m-28.183487 0a28.183486 28.183486 0 1 1 56.366973 0 28.183486 28.183486 0 1 1-56.366973 0ZM494.294989 458.794637m-28.183486 0a28.183486 28.183486 0 1 1 56.366973 0 28.183486 28.183486 0 1 1-56.366973 0ZM822.379675 736.293578H205.956246c-25.292872 0-45.52717-20.234298-45.52717-45.52717v-614.978123c0-25.292872 20.234298-45.52717 45.52717-45.52717h616.423429c25.292872 0 45.52717 20.234298 45.52717 45.52717V690.766408c0.722653 24.570219-20.234298 45.52717-45.52717 45.52717z m-530.427664-656.169372H211.01482V193.580805h80.937191v-113.456599z m0 164.042343H211.01482V364.849682h80.937191v-120.683133z m0 171.268878H211.01482V536.841214h80.937191v-121.405787z m0 171.991531H211.01482V685.707833h80.937191v-98.280875z m403.24065-507.302752H342.537756V685.707833h352.654905v-605.583627z m122.851093 0h-72.265349V193.580805h72.265349v-113.456599z m0 164.042343h-72.265349V364.849682h72.265349v-120.683133z m0 171.268878h-72.265349V536.841214h72.265349v-121.405787z m0 171.991531h-72.265349V685.707833h72.265349v-98.280875z"  horiz-adv-x="1024" />
      
      <glyph glyph-name="caozuo-bianji" unicode="&#58888;" d="M818.711474 752.399441c-4.76656-32.004925-10.214642-66.053392-17.023722-102.824877s-14.299681-73.543993-22.471804-110.995976c-8.1711-37.453007-16.343223-71.500451-24.514324-102.824877L642.343627 374.466879c13.619182 4.086062 27.238364 7.490601 40.177048 11.576663 10.895141 3.40454 22.471804 6.810103 34.047444 10.214643s21.790282 6.128581 29.280883 9.53312l-11.576663-44.262086c-3.40454-12.257162-6.128581-21.790282-9.53312-27.918863-5.448082-14.981203-12.257162-29.280884-19.747763-41.538045-7.490601-12.938684-14.981203-23.833825-21.109784-33.366945-7.490601-10.895141-15.661701-21.790282-24.514323-30.642904l-102.824877-30.642904 84.439134-14.981203c-10.895141-9.533121-23.152303-19.067264-36.090986-29.280884-10.895141-8.1711-23.833825-17.023722-38.133505-26.557866s-29.280884-17.705244-44.943609-25.195845c-15.661701-7.490601-33.366945-11.576663-52.434209-12.257161-19.067264 0-37.453007 0.680499-54.476729 4.086061-19.747763 2.724041-40.177048 7.490601-59.924811 14.299681 6.128581 9.533121 12.938684 19.747763 19.747763 32.004925 6.128581 10.214642 13.619182 21.790282 22.471804 35.409464 8.852622 13.619182 17.705244 28.600385 27.238365 45.624107 26.557866 44.943608 52.43421 89.205695 77.629031 132.787282 25.195845 43.581588 47.667649 83.077114 68.095911 117.80608A23627.080999 23627.080999 0 0 0 636.214023 586.927759c-26.557866-29.962405-53.79623-64.009849-83.077114-101.462856-25.195845-32.004925-53.114708-69.457932-83.757612-113.039519s-61.96733-91.929736-93.972255-143.682424c-6.810103-10.895141-14.299681-23.152303-22.471804-36.771485-8.1711-13.619182-17.023722-28.600385-26.557866-44.262086-9.533121-15.661701-18.385742-31.324426-28.600385-48.348148-9.533121-16.343223-19.067264-32.686447-28.600385-48.348148-22.471804-36.090986-44.943608-74.224492-68.776409-113.720018 0.680499 11.576663 2.724041 26.557866 6.809079 44.943609 3.40454 15.661701 8.852622 35.409464 17.023722 58.56279 7.490601 23.152303 19.067264 51.072189 33.366945 83.077114 9.533121 19.747763 17.023722 35.409464 21.790282 46.986127 4.76656 11.576663 8.852622 19.747763 11.576663 25.876344 2.724041 6.810103 4.76656 10.895141 6.80908 13.619182-2.724041 3.40454-3.40454 10.214642-1.362021 19.747763 1.362021 8.852622 4.086062 21.790282 9.533121 38.815028 5.448082 17.023722 14.299681 40.857547 27.238364 71.50045 12.938684 31.324426 29.962405 64.691371 50.390667 100.782358 21.109784 36.090986 44.262086 71.500451 70.819952 106.910938s54.476729 69.457932 85.119633 102.824877 61.96733 62.647829 93.972255 88.525196c32.004925 25.876344 64.009849 46.986127 96.014774 63.329351 32.004925 16.343223 63.329351 25.876344 93.291756 27.918863 2.045589-20.432355 0.00307-45.6282-4.082991-78.313624z"  horiz-adv-x="1024" />
      
      <glyph glyph-name="quanxuan" unicode="&#58886;" d="M1024 281.61548300000004h-93.365389A187.969456 187.969456 0 0 1 750.948817 414.696001H597.27527v71.688516H750.948817a68.28215 68.28215 0 0 1 68.28215 68.28215V827.71785A68.28215 68.28215 0 0 1 750.948817 896H341.333333a68.28215 68.28215 0 0 1-68.28215-68.28215v-273.051183a68.28215 68.28215 0 0 1 68.28215-68.28215h153.518712v-71.688516H329.875558a187.892039 187.892039 0 0 1-168.228019-133.080518H68.28215A68.28215 68.28215 0 0 1 0 213.33333300000004v-273.051183a68.28215 68.28215 0 0 1 68.28215-68.28215h273.051183a68.28215 68.28215 0 0 1 68.28215 68.28215V213.33333300000004a68.28215 68.28215 0 0 1-68.28215 68.28215h-65.495123a85.159144 85.159144 0 0 0 65.495123 30.966962H750.948817l8.748166-0.464504a85.159144 85.159144 0 0 0 56.746957-30.192788H750.948817a68.28215 68.28215 0 0 1-68.28215-68.28215v-273.051183a68.28215 68.28215 0 0 1 68.28215-68.59182h273.051183a68.28215 68.28215 0 0 1 68.28215 68.28215V213.33333300000004a68.28215 68.28215 0 0 1-68.28215 68.28215zM316.404929 191.501625a23.84456 23.84456 0 1 0 33.676571-33.67657l-170.318288-170.318289a29.341196 29.341196 0 0 0-21.212369-6.890148 30.11537 30.11537 0 0 0-21.444621 6.890148l-74.707795 74.630378a23.921978 23.921978 0 0 0 33.831406 33.831405l62.475845-61.933923z m182.085734 396.531943a29.883118 29.883118 0 0 0-21.444621 6.812731L402.5705 669.554094a23.921978 23.921978 0 1 0 33.831405 33.831405l62.398428-62.32101 157.466999 157.621834a23.767143 23.767143 0 1 0 33.599153-33.67657l-170.318288-170.318289a29.263779 29.263779 0 0 0-21.057534-6.657896z m534.180086-430.518183l-170.318288-170.318288a29.341196 29.341196 0 0 0-21.212369-6.890149 30.270205 30.270205 0 0 0-21.444621 6.890149l-74.707794 74.630377a23.921978 23.921978 0 1 0 33.831405 33.831406l62.475845-61.933923L998.684509 191.501625a23.84456 23.84456 0 1 0 33.676571-33.67657z"  horiz-adv-x="1092" />
      
      <glyph glyph-name="shouqi" unicode="&#60314;" d="M554.666667 507.733333l98.133333 98.133334 29.866667-29.866667-149.333334-149.333333L384 576l29.866667 29.866667L512 507.733333V768h42.666667v-260.266667z m0-290.133333V-42.66666699999996h-42.666667v260.266667l-98.133333-98.133333-29.866667 29.866666 149.333333 149.333334 149.333334-149.333334-29.866667-29.866666-98.133333 98.133333z"  horiz-adv-x="1024" />
      
      <glyph glyph-name="zhankai" unicode="&#60315;" d="M554.666667 38.39999999999998l98.133333 98.133333 29.866667-29.866666-149.333334-149.333334L384 106.66666699999996l29.866667 29.866666 98.133333-98.133333V298.66666699999996h42.666667v-260.266667z m0 691.2V469.333333h-42.666667V729.6L413.866667 631.4666669999999 384 661.333333 533.333333 810.666667 682.666667 661.333333l-29.866667-29.866666L554.666667 729.6z"  horiz-adv-x="1024" />
      
      <glyph glyph-name="shouqicaidan" unicode="&#58914;" d="M192.037 608.047h640.124c17.673 0 32 14.327 32 32s-14.327 32-32 32H192.037c-17.673 0-32-14.327-32-32s14.327-32 32-32zM832.161 416.831H438.553c-17.673 0-32-14.327-32-32s14.327-32 32-32h393.608c17.673 0 32 14.327 32 32s-14.327 32-32 32zM832.161 160.198H192.037c-17.673 0-32-14.327-32-32s14.327-32 32-32h640.124c17.673 0 32 14.327 32 32s-14.327 32-32 32zM319.028 544.406l-160-160 160-160z"  horiz-adv-x="1024" />
      
      <glyph glyph-name="zhankaicaidan" unicode="&#58916;" d="M192.037 608.047h640.124c17.673 0 32 14.327 32 32s-14.327 32-32 32H192.037c-17.673 0-32-14.327-32-32s14.327-32 32-32zM192.028 352.83h393.608c17.673 0 32 14.327 32 32s-14.327 32-32 32H192.028c-17.673 0-32-14.327-32-32s14.327-32 32-32zM832.161 160.198H192.037c-17.673 0-32-14.327-32-32s14.327-32 32-32h640.124c17.673 0 32 14.327 32 32s-14.327 32-32 32zM705.162 224.406l160 160-160 160z"  horiz-adv-x="1024" />
      
      <glyph glyph-name="homefill" unicode="&#59067;" d="M947.2 473.6l-374.4 307.2c-32 25.6-86.4 25.6-118.4 0l-377.6-310.4c-12.8-6.4-16-22.4-9.6-35.2 3.2-12.8 16-19.2 28.8-19.2h32v-364.8c0-48 35.2-83.2 83.2-83.2h204.8c19.2 0 32 12.8 32 32v147.2c0 22.4 35.2 44.8 64 44.8s67.2-22.4 67.2-44.8v-147.2c0-19.2 12.8-32 32-32h208c48 0 80 32 80 83.2v364.8h32c12.8 0 25.6 9.6 28.8 22.4 3.2 12.8 0 25.6-12.8 35.2z"  horiz-adv-x="1024" />
      
      <glyph glyph-name="hezi" unicode="&#58907;" d="M67.565269 679.134339L512 868.146811l444.434731-189.012472v-529.332225L512-39.331987 67.565269 149.802114V679.134339m39.408006-59.355268v-446.745694l387.147167-162.01069V465.795938L106.973275 619.779071z m815.891673-447.840361V628.658035l-387.147167-161.76743v-454.773251l387.147167 159.821356M915.32391 662.835966L512 830.56325 112.568239 658.457299l399.431761-159.942986L915.32391 662.835966m-105.452904-4.378667zM750.02922 423.468821c-11.433187 0-20.67704 9.243853-20.67704 20.67704v117.494239L298.17508 737.759829c-10.581779 4.378667-15.690224 16.420002-11.311557 27.001782s16.420002 15.690224 27.001782 11.311557L770.827889 589.493289v-145.225799c-0.12163-11.554816-9.365483-20.79867-20.798669-20.798669z"  horiz-adv-x="1024" />
      
      <glyph glyph-name="yincangbiaodan" unicode="&#58931;" d="M755.2 126.72m-66.56 0a66.56 66.56 0 1 1 133.12 0 66.56 66.56 0 1 1-133.12 0ZM558.08 20.48l46.08 43.52a83.2 83.2 0 0 0-33.28 64c0 60.16 84.48 111.36 184.32 111.36a201.6 201.6 0 0 0 28.16 0l57.6 55.04a369.92 369.92 0 0 1-85.76 10.88c-139.52 0-248.32-76.8-248.32-175.36a144.64 144.64 0 0 1 51.2-109.44zM906.88 265.6l-49.28-46.72c48.64-20.48 81.92-54.4 81.92-92.16 0-60.16-84.48-110.72-184.32-110.72a281.6 281.6 0 0 0-92.8 16l-50.56-48.64a326.4 326.4 0 0 1 143.36-31.36c138.88 0 248.32 76.8 248.32 174.72a163.2 163.2 0 0 1-96.64 138.88zM565.12-87.04a31.36 31.36 0 0 0-23.68 10.24 31.36 31.36 0 0 0 0 44.8l380.16 364.16a32.64 32.64 0 0 0 44.8-46.72l-379.52-363.52a32.64 32.64 0 0 0-21.76-8.96zM709.76 364.16a37.76 37.76 0 0 0-10.88-26.88 35.84 35.84 0 0 0-26.88-11.52 47.36 47.36 0 0 0-16 3.2l-157.44 51.84a38.4 38.4 0 0 0-28.16 47.36 37.12 37.12 0 0 0 44.8 26.88c18.56-4.48 37.12-11.52 55.68-17.92l108.8-35.84a38.4 38.4 0 0 0 30.08-37.12z m67.2 166.4a36.48 36.48 0 0 0-40.32-37.76c-23.68 5.12-46.72 12.16-70.4 17.92l-99.84 28.16a37.12 37.12 0 0 0-30.08 33.92 37.12 37.12 0 0 0 17.92 35.84 41.6 41.6 0 0 0 35.84 0l113.92-28.8c14.72-3.84 30.08-7.68 44.8-12.8a36.48 36.48 0 0 0 28.16-36.48z m-380.16-39.68a40.96 40.96 0 0 0 43.52-39.04 39.04 39.04 0 0 0-38.4-37.76 40.32 40.32 0 0 0-42.88 39.04 37.12 37.12 0 0 0 37.76 37.76zM460.16 576a40.32 40.32 0 0 0-42.24 39.04 38.4 38.4 0 0 0 11.52 24.96 37.12 37.12 0 0 0 27.52 10.24 39.68 39.68 0 0 0 42.24-39.04 37.12 37.12 0 0 0-39.04-35.2zM337.92 343.04M979.2 776.32L416.64 887.68a41.6 41.6 0 0 1-53.76-30.08l-134.4-369.28-49.28-133.76a39.04 39.04 0 0 1 40.32-55.68 40.96 40.96 0 0 1 36.48 31.36l148.48 414.08 23.04 64L928 704l-16-48c-29.44-88.96-58.88-177.92-90.24-266.24a39.04 39.04 0 0 1 40.32-54.4 41.6 41.6 0 0 1 33.92 31.36q64 176.64 117.76 352.64a40.32 40.32 0 0 1-34.56 56.96zM462.08 111.36a11.52 11.52 0 0 1-8.96 16.64L29.44 296.32l-11.52 3.84c0-19.2-5.12-36.48-6.4-54.4a192 192 0 0 1 41.6-140.8 208.64 208.64 0 0 1 80-55.04L448-92.8l16.64-6.4 21.12 104.96s-3.84 3.84-5.12 7.04a209.28 209.28 0 0 0-18.56 98.56z"  horiz-adv-x="1024" />
      
      <glyph glyph-name="biaodan" unicode="&#58933;" d="M926.08 704L425.6 803.84l-23.04-64-151.04-411.52a41.6 41.6 0 0 0-33.92-32 39.04 39.04 0 0 0-39.68 56.32l48.64 133.12L361.6 855.04a40.96 40.96 0 0 0 53.76 30.08l562.56-111.36a40.32 40.32 0 0 0 33.92-56.32c-64-206.72-135.04-413.44-215.04-615.04a640 640 0 0 0-64-128 207.36 207.36 0 0 0-167.04-92.8A236.16 236.16 0 0 0 448-94.72c-106.24 47.36-211.2 94.72-316.8 142.08a208.64 208.64 0 0 0-79.36 55.04 192 192 0 0 0-42.24 141.44c0 17.28 4.48 35.2 7.04 54.4l10.88-3.84c141.44-56.96 282.24-114.56 423.68-170.88a13.44 13.44 0 0 0 9.6-14.08 203.52 203.52 0 0 1 18.56-99.2 92.8 92.8 0 0 1 96.64-49.28 136.32 136.32 0 0 1 98.56 72.96 858.24 858.24 0 0 1 64 145.92c60.16 156.8 113.92 316.16 166.4 476.16 5.76 16 10.88 32 16 48.64z m0 0M645.76 206.08a37.76 37.76 0 0 0-50.56-35.84l-163.84 54.4a39.68 39.68 0 0 0-26.24 40.32 37.76 37.76 0 0 0 33.28 33.28 52.48 52.48 0 0 0 19.84 0l158.08-52.48a37.76 37.76 0 0 0 29.44-37.76z m64 155.52a35.84 35.84 0 0 0-10.24-26.88 36.48 36.48 0 0 0-26.88-10.88 44.16 44.16 0 0 0-16 0l-159.36 54.4a38.4 38.4 0 0 0-28.16 47.36 36.48 36.48 0 0 0 42.88 27.52c19.2-5.12 37.12-12.16 55.68-17.92l108.8-35.84a37.76 37.76 0 0 0 30.08-37.12z m67.84 166.4a36.48 36.48 0 0 0-40.96-37.12c-23.68 4.48-46.72 11.52-69.76 17.92l-102.4 27.52a37.12 37.12 0 0 0-30.08 33.92 36.48 36.48 0 0 0 18.56 36.48 42.24 42.24 0 0 0 35.2 0L704 576l44.8-12.16a39.04 39.04 0 0 0 28.8-37.12z m-380.16-39.04a40.96 40.96 0 0 0 40.96-40.96 39.68 39.68 0 0 0-38.4-38.4 40.96 40.96 0 0 0-42.88 38.4 38.4 38.4 0 0 0 38.4 38.4z m64 81.92a40.32 40.32 0 0 0-41.6 39.04 35.84 35.84 0 0 0 11.52 26.88 37.76 37.76 0 0 0 26.88 10.88 39.68 39.68 0 0 0 42.24-39.68 35.84 35.84 0 0 0-39.04-36.48zM336 341.12a39.68 39.68 0 0 0 41.6-39.04 37.76 37.76 0 0 0-10.88-26.88 40.32 40.32 0 0 0-26.24-10.88 40.96 40.96 0 0 0-44.16 39.04 38.4 38.4 0 0 0 39.68 37.76z m0 0"  horiz-adv-x="1024" />
      
      <glyph glyph-name="xitongcanshupeizhi" unicode="&#58884;" d="M797.696 334.208c13.76 0 22.912-9.024 22.912-22.592v-31.68c18.368-9.088 32.128-18.112 45.888-27.2l32.064 18.112c9.216 4.544 22.976 0 27.52-9.024l32.128-54.336c4.608-9.024 0-22.592-9.152-27.136l-27.52-18.112c4.544-9.024 4.544-18.048 4.544-27.136 0-9.024-4.544-18.112-4.544-27.136l27.52-13.568c9.152-4.544 13.76-18.112 4.544-31.68l-32.064-54.336c-4.608-13.568-18.368-13.568-27.52-9.024l-27.52 18.112c-13.76-13.568-27.52-22.656-45.888-27.2v-31.616c0-13.632-9.152-22.656-22.912-22.656h-59.584c-13.76 0-22.976 9.024-22.976 22.656v31.616c-18.304 4.544-32.064 18.112-45.824 27.2l-27.52-18.112c-9.152-4.48-22.912 0-27.52 9.024l-32.064 54.336c-4.608 9.024 0 22.592 9.152 27.136l27.52 18.112c-4.608 9.024-4.608 18.112-4.608 27.136 0 9.088 4.608 18.112 4.608 27.136l-27.52 18.112c-13.76 4.48-13.76 18.112-9.152 27.136l32.064 54.336c4.608 13.568 18.368 13.568 27.52 9.024l27.52-18.112c13.76 13.632 27.52 22.656 45.824 27.2v31.68c0 13.568 9.216 22.592 22.976 22.592zM352 0a32 32 0 1 0 0-64h-256a32 32 0 1 0 0 64h256z m0 128a32 32 0 1 0 0-64h-256a32 32 0 1 0 0 64h256z m418.176 70.464c-36.672 0-64.192-27.136-64.192-63.36 0-36.224 27.52-63.36 64.192-63.36s64.192 27.136 64.192 63.36c0 36.224-27.52 63.36-64.192 63.36zM426.24 832c22.976 0 36.736-18.112 36.736-36.224v-54.272c27.52-9.088 50.432-22.656 73.344-40.768l45.888 27.2c18.304 9.024 41.216 4.48 50.432-13.568l50.432-86.016c9.152-18.112 4.544-40.704-13.76-49.792l-45.888-27.136c4.608-13.568 4.608-27.136 4.608-40.704 0-13.568 0-27.136-4.608-40.768l45.888-27.136c18.304-9.024 22.912-31.68 13.76-49.792l-50.432-85.952c-13.76-18.112-32.128-22.656-50.432-13.568L536.32 320.64c-18.368-18.112-45.824-31.68-73.344-40.704v-54.336c0-18.112-18.368-36.16-36.736-40.704H325.376a35.904 35.904 0 0 0-36.672 36.224v54.272a396.864 396.864 0 0 0-73.408 45.248l-45.824-27.136c-18.368-9.088-41.28-4.48-50.432 13.568l-50.432 85.952c-9.216 18.112-4.608 40.768 13.76 49.792l45.824 27.136c-4.608 13.632-4.608 27.2-4.608 40.768 0 13.568 4.608 27.136 4.608 40.704l-45.824 27.136C64 592.192 59.392 610.24 68.608 628.352l50.432 86.016c9.152 18.048 32.064 22.592 50.432 13.568l45.824-27.2a233.408 233.408 0 0 0 73.408 40.768v54.272c0 18.112 18.304 36.224 36.672 36.224z m-50.432-217.216c-59.584 0-105.472-45.248-105.472-104.064 0-58.88 45.888-104.064 105.472-104.064 59.648 0 105.472 45.248 105.472 104.064 0 58.816-45.824 104.064-105.472 104.064z"  horiz-adv-x="1024" />
      
      <glyph glyph-name="more" unicode="&#58963;" d="M512 640a64 64 0 1 1 0 128 64 64 0 0 1 0-128zM512 320a64 64 0 1 1 0 128 64 64 0 0 1 0-128zM576 64a64 64 0 1 0-128 0 64 64 0 0 0 128 0z"  horiz-adv-x="1024" />
      
      <glyph glyph-name="guojiziyuanwenjian" unicode="&#58947;" d="M512 832C264.8 832 64 631.2 64 384s200.8-448 448-448 448 200.8 448 448S759.2 832 512 832z m-46.4-831.2c-189.6 23.2-336 184.8-336 380.8 0 29.6 4 58.4 10.4 85.6l229.6-229.6v-48c0-52.8 43.2-96 96-96v-92.8z m331.2 124c-12 39.2-48 67.2-91.2 67.2h-48V335.2c0 27.2-21.6 48.8-48.8 48.8H313.6v96h103.2c27.2 0 48.8 21.6 48.8 48.8V624H560c53.6 0 97.6 44 97.6 97.6V740c140.8-56.8 240-194.4 240-356 0-100-37.6-190.4-100.8-259.2z"  horiz-adv-x="1024" />
      
      <glyph glyph-name="success" unicode="&#59007;" d="M512 821.333333C270.933333 821.333333 74.666667 625.066667 74.666667 384S270.933333-53.333333 512-53.333333 949.333333 142.933333 949.333333 384 753.066667 821.333333 512 821.333333z m0-810.666666c-204.8 0-373.333333 168.533333-373.333333 373.333333S307.2 757.333333 512 757.333333 885.333333 588.8 885.333333 384 716.8 10.666667 512 10.666667zM701.866667 514.133333L448 258.133333 322.133333 384c-12.8 12.8-32 12.8-44.8 0-12.8-12.8-12.8-32 0-44.8l149.333334-149.333333c6.4-6.4 14.933333-8.533333 23.466666-8.533334s17.066667 2.133333 23.466667 8.533334l277.333333 277.333333c12.8 12.8 12.8 32 0 44.8-14.933333 12.8-36.266667 12.8-49.066666 2.133333z"  horiz-adv-x="1024" />
      
      <glyph glyph-name="quxiaoquanping" unicode="&#60312;" d="M354.133333 213.33333300000004H256v42.666667h170.666667v-170.666667H384v98.133334L243.2 42.66666699999996l-29.866667 29.866666L354.133333 213.33333300000004z m358.4 0l140.8-140.8-29.866666-29.866666-140.8 140.8V85.33333300000004h-42.666667v170.666667h170.666667v-42.666667h-98.133334zM354.133333 512L213.333333 652.8l29.866667 29.866667L384 541.866667V640h42.666667v-170.666667H256V512h98.133333z m358.4 0H810.666667v-42.666667h-170.666667V640h42.666667v-98.133333L823.466667 682.666667l29.866666-29.866667L712.533333 512z"  horiz-adv-x="1024" />
      
      <glyph glyph-name="quanping" unicode="&#60313;" d="M285.866667 85.33333300000004H384v-42.666666H213.333333v170.666666h42.666667v-98.133333l128 128 29.866667-29.866667-128-128z m494.933333 0l-128 128 29.866667 29.866667 128-128V213.33333300000004h42.666666v-170.666666h-170.666666v42.666666h98.133333zM285.866667 640l128-128-29.866667-29.866667-128 128V512H213.333333V682.666667h170.666667v-42.666667H285.866667z m494.933333 0H682.666667V682.666667h170.666666v-170.666667h-42.666666V610.133333l-128-128-29.866667 29.866667 128 128z"  horiz-adv-x="1024" />
      
      <glyph glyph-name="dayin-dayinji" unicode="&#58906;" d="M789.333333 597.333333h-21.333333v58.666667A69.546667 69.546667 0 0 1 698.666667 725.333333h-373.333334A69.546667 69.546667 0 0 1 256 656V597.333333h-21.333333a128 128 0 0 1-128-128v-192a128 128 0 0 1 128-128h21.333333v-75.52A95.146667 95.146667 0 0 1 351.146667-21.333333h321.706666A95.146667 95.146667 0 0 1 768 73.813333V149.333333h21.333333a128 128 0 0 1 128 128v192a128 128 0 0 1-128 128z m-490.666666 58.666667A26.666667 26.666667 0 0 0 325.333333 682.666667h373.333334A26.666667 26.666667 0 0 0 725.333333 656V597.333333H298.666667z m426.666666-582.186667A52.693333 52.693333 0 0 0 672.853333 21.333333H351.146667A52.693333 52.693333 0 0 0 298.666667 73.813333v193.706667A52.693333 52.693333 0 0 0 351.146667 320h321.706666A52.693333 52.693333 0 0 0 725.333333 267.52zM874.666667 277.333333a85.333333 85.333333 0 0 0-85.333334-85.333333h-21.333333v75.52A95.146667 95.146667 0 0 1 672.853333 362.666667H351.146667A95.146667 95.146667 0 0 1 256 267.52V192h-21.333333a85.333333 85.333333 0 0 0-85.333334 85.333333v192a85.333333 85.333333 0 0 0 85.333334 85.333334h554.666666a85.333333 85.333333 0 0 0 85.333334-85.333334zM784 500.693333h-103.68a21.333333 21.333333 0 0 1 0-42.666666h103.68a21.333333 21.333333 0 0 1 0 42.666666z"  horiz-adv-x="1024" />
      
      <glyph glyph-name="empty" unicode="&#58913;" d="M164.00295914 3.4397591399999783l-0.99867527 0.02202151c-5.77293763 0.18718279-35.78054194 2.11406452-55.77166452 20.85436559-20.49761721 19.22367311-22.94420645 46.86396559-23.22608172 52.21409032a27.02589247 27.02589247 0 0 0-0.03963871 1.51067526v150.53901076c-0.2983914 6.20125592-0.69918279 27.15031398 6.32017205 50.41603441 6.72536774 22.30778495 15.03408172 36.9531871 17.41350537 40.90494624l75.57670538 133.70577204c0.37766882 0.67055484 0.77735914 1.31908818 1.20567742 1.9500043 2.35630108 3.49591398 15.02417205 21.4907871 32.39363441 32.29784086 18.27674839 11.38181505 40.39845161 12.26157419 46.74615053 12.2615742h477.39540645c0.6144 0 1.22219355-0.01761721 1.84980646-0.05725592 4.74563441-0.30389677 29.38769892-2.38382795 48.45832258-13.29328172 18.20958279-10.42938495 32.86709677-28.65438279 35.61868387-32.19544086a29.72903226 29.72903226 0 0 0 1.57233548-2.24949678l89.760757-142.2336c0.38317419-0.62651182 0.77185376-1.28055053 1.12199569-1.95110537 1.71987957-3.30322581 10.59234408-20.75747097 15.08583226-37.73164732 4.43733334-16.7936 5.5075785-35.35332473 5.67053763-38.89878709l0.02312258-1.2111828v-150.56103225c0.10129892-7.96077419-1.36423226-35.28065376-24.02656343-55.5811785-21.46215914-19.21266237-50.35437419-20.70021505-58.69832259-20.70021505H164.00295914z m-7.68990967 285.95144946c-1.6516129-2.93656774-6.78812903-12.65135484-11.10654624-26.96423226-4.56065376-15.13097634-4.01892473-29.27538924-3.94625376-30.84221935a43.49247311 43.49247311 0 0 0 0.07377203-2.03588817v-150.51588817l0.05615484-0.41620646c0.35564731-2.70644301 2.00726021-9.26334624 4.85464087-12.22193548l0.38317419-0.40739785 0.45144086-0.33142365c3.98589247-2.93766882 13.86253763-4.62341505 17.31220645-4.83151829l693.10816344-0.01101074c5.75091613 0.06716559 15.80263226 1.98413763 20.35778064 6.06582364 4.07507957 3.65336774 4.98787097 9.92178924 4.98787097 10.92486883l-0.05505376 1.74190107v149.86735484c-0.31050323 5.84670968-1.44350968 17.49938924-3.7888 26.32670968-2.65579355 10.08584947-8.5971957 22.16794839-9.76433548 24.47910537l-0.32151399 0.56375054-88.0860215 139.59542366-0.27526882 0.33252472c-3.33846021 4.02002581-11.34327742 12.61171613-17.73612042 16.27609463-5.53620645 3.16779355-16.81121721 5.19707527-22.61828818 5.73880431l-0.60228817 0.02862795h-475.87372043c-4.45384947-0.03963871-12.72843011-1.21778924-16.55136344-3.60822366-5.38425806-3.35497634-11.75948387-11.02176344-14.38114409-14.60135913l-0.22572043-0.31050323-75.103243-132.86455054-0.81149248-1.36423226 0.01101075 0.03413334c-0.0220215-0.06716559-0.34904086-0.64853334-0.34904085-0.64853334z m353.02014623 252.79146667a28.71714408 28.71714408 0 0 0-28.68851613 28.68301075V735.87723011a28.71714408 28.71714408 0 0 0 28.67750538 28.68301075 28.72264947 28.72264947 0 0 0 28.6940215-28.68301075v-165.00934193a28.71163871 28.71163871 0 0 0-28.68301075-28.68301076z m192.31821075 1.08786236a28.72264947 28.72264947 0 0 0-28.68301075 28.68961721 28.75127742 28.75127742 0 0 0 6.40825806 18.06864516l65.57123442 80.86957419a28.59382366 28.59382366 0 0 0 22.30778493 10.62097205c6.62847311 0 12.86936774-2.21536344 18.03341076-6.40385377a28.44738065 28.44738065 0 0 0 10.46902366-19.30295053 28.4627957 28.4627957 0 0 0-6.24089463-21.04485162l-65.56903225-80.87067527a28.4804129 28.4804129 0 0 0-22.25273118-10.62097204h-0.04404302z m-381.41137204 2.19334194a28.48591828 28.48591828 0 0 0-22.40908388 10.80154838l-64.45914838 80.86406882a28.71714408 28.71714408 0 0 0 4.54964301 40.31366882 28.37911398 28.37911398 0 0 0 17.85944086 6.25741075c8.79428818 0 16.97417634-3.93964731 22.44872258-10.80705376l64.46465377-80.86296774a28.71163871 28.71163871 0 0 0-4.53753119-40.30926452 28.79091613 28.79091613 0 0 0-17.87045161-6.25741075h-0.04624516zM510.42766452 121.45520859999999c-63.9064086 0-119.43143226 42.84504086-135.01384947 104.17603441l-1.25632687 4.94382796-254.74257205 0.15194838a28.74577205 28.74577205 0 0 0-28.68301076 28.70613334 28.71714408 28.71714408 0 0 0 28.68301076 28.672l280.51103656-0.17947527a28.74026666 28.74026666 0 0 0 28.6675957-28.6940215c0-45.08903226 35.94460215-80.40271828 81.83411613-80.40271829 45.72545376 0 81.54563441 35.31258495 81.5456344 80.40161721a28.75678279 28.75678279 0 0 0 28.68301076 28.69512258l277.9136 0.17507097c15.82355269 0 28.68301076-12.84844731 28.6940215-28.66098925s-12.84734624-28.69512258-28.66098924-28.71824516l-252.16495484-0.15194839-1.25742796-4.94382796c-15.5648-61.32989247-70.97090753-104.17052903-134.75289462-104.17052903z"  horiz-adv-x="1024" />
      
      <glyph glyph-name="tishi" unicode="&#58928;" d="M320.232727 239.616C211.874909 301.428364 139.636364 413.975273 139.636364 542.533818 139.636364 737.745455 306.269091 896 512 896s372.363636-158.254545 372.363636-353.466182c0-128.558545-72.331636-241.105455-180.596363-302.917818-6.050909-31.650909-20.573091-60.322909-41.332364-84.154182H361.565091a180.410182 180.410182 0 0 0-41.425455 84.154182z m457.728 269.312A267.729455 267.729455 0 0 1 512 778.146909c-23.552 0-35.467636-11.264-35.467636-33.605818 0-5.585455 11.915636-16.756364 35.467636-16.756364 113.570909 0 212.805818-94.301091 212.805818-218.856727 0-5.585455 11.915636-16.849455 35.374546-16.849455 5.864727 0 17.780364 11.264 17.780363 16.756364z m-425.518545-437.527273c0 18.525091 15.825455 33.512727 35.374545 33.512728h248.366546c19.549091 0 35.374545-14.894545 35.374545-33.512728 0-18.618182-15.825455-33.698909-35.374545-33.698909H387.816727a34.443636 34.443636 0 0 0-35.374545 33.605818z m302.545454-84.247272c-26.065455-49.803636-80.337455-84.154182-142.987636-84.154182a160.581818 160.581818 0 0 0-142.987636 84.154182h285.975272z"  horiz-adv-x="1024" />
      
      <glyph glyph-name="act_qingkong" unicode="&#58883;" d="M228 511v-488.782c0-29.34 24.03-53.218 53.784-53.218h460.432C771.97-31 796-7.123 796 22.218V511H228z m640 0v-488.782C868-46.99 811.634-103 742.216-103H281.784C212.366-103 156-46.99 156 22.218V511H87c-19.882 0-36 16.118-36 36v33.575c0 38.642 14.962 78.077 41.31 108.02C121.451 721.711 162.222 741 208.593 741h607.143c46.387 0 87.094-19.174 116.128-52.197C958.151 658.904 973 619.47 973 580.575V547c0-19.882-16.118-36-36-36h-69zM352 777.5c-19.882 0-36 16.118-36 36s16.118 36 36 36h320c19.882 0 36-16.118 36-36s-16.118-36-36-36H352z m525.791-136.238C862.17 659.03 841.003 669 815.736 669H208.593c-25.208 0-46.47-10.06-62.23-27.969-14.246-16.19-22.7-37.655-23.326-58.031h777.927c-0.612 20.673-9.003 42.145-23.173 58.262zM336.5 368c0 19.882 16.118 36 36 36s36-16.118 36-36v-263c0-19.882-16.118-36-36-36s-36 16.118-36 36V368z m140 0c0 19.882 16.118 36 36 36s36-16.118 36-36v-263c0-19.882-16.118-36-36-36s-36 16.118-36 36V368z m140 0c0 19.882 16.118 36 36 36s36-16.118 36-36v-263c0-19.882-16.118-36-36-36s-36 16.118-36 36V368z"  horiz-adv-x="1024" />
      
      <glyph glyph-name="peizhishezhi" unicode="&#58956;" d="M950.857143 493.714286h-51.748572a403.2 403.2 0 0 1-36.571428 86.308571l36.571428 36.571429a73.142857 73.142857 0 0 1 0 103.314285l-51.017142 51.931429a73.142857 73.142857 0 0 1-103.314286 0l-36.571429-36.571429A393.691429 393.691429 0 0 1 621.714286 770.925714V822.857143a73.142857 73.142857 0 0 1-73.142857 73.142857h-73.142858a73.142857 73.142857 0 0 1-73.142857-73.142857v-51.931429a393.691429 393.691429 0 0 1-86.308571-35.657143l-36.571429 36.571429a73.142857 73.142857 0 0 1-103.314285 0L124.16 720.091429a73.142857 73.142857 0 0 1 0-103.314286l36.571429-36.571429a403.2 403.2 0 0 1-36.571429-86.308571H73.142857a73.142857 73.142857 0 0 1-73.142857-73.142857v-73.142857a73.142857 73.142857 0 0 1 73.142857-73.142858h51.748572a403.2 403.2 0 0 1 36.571428-86.308571l-36.571428-36.571429a73.142857 73.142857 0 0 1 0-103.314285l51.748571-51.748572a73.142857 73.142857 0 0 1 103.314286 0l36.571428 36.571429A393.691429 393.691429 0 0 1 402.285714-2.925714V-54.857143a73.142857 73.142857 0 0 1 73.142857-73.142857h73.142858a73.142857 73.142857 0 0 1 73.142857 73.142857v51.931429a393.691429 393.691429 0 0 1 86.308571 35.657143l36.571429-36.571429a73.142857 73.142857 0 0 1 103.314285 0l51.748572 51.748571a73.142857 73.142857 0 0 1 0 103.314286l-36.571429 36.571429a403.2 403.2 0 0 1 36.571429 86.308571H950.857143a73.142857 73.142857 0 0 1 73.142857 73.142857V420.571429a73.142857 73.142857 0 0 1-73.142857 73.142857zM617.142857 282.331429a146.285714 146.285714 0 1 0-3.474286 206.811428 146.285714 146.285714 0 0 0 3.474286-206.811428z"  horiz-adv-x="1024" />
      
      <glyph glyph-name="bianji" unicode="&#58881;" d="M1018.319924 783.882465q4.093748-9.210934 6.652341-21.492179t2.558593-25.585928-5.117186-26.609365-16.374994-25.585928q-12.281245-12.281245-22.003898-21.492179t-16.886712-16.374994q-8.187497-8.187497-15.351557-14.32812l-191.382739 191.382739q12.281245 11.257808 29.167958 27.121083t28.144521 25.074209q14.32812 11.257808 29.679676 15.863275t30.191395 4.093748 28.656239-4.605467 24.050772-9.210934q21.492179-11.257808 47.589826-39.402329t40.425766-58.847634zM221.062416 284.445155q6.140623 6.140623 28.656239 29.167958t56.289041 56.80076l74.710909 74.710909 82.898406 82.898406 220.038979 220.038979 191.382739-192.406177-220.038979-220.038979-81.874969-82.898406q-40.937484-39.914047-73.687472-73.175753t-54.242167-54.753885-25.585928-24.562491q-10.234371-9.210934-23.539054-19.445305t-27.632802-16.374994q-14.32812-7.16406-41.960921-17.398431t-57.824197-19.957024-57.312478-16.886712-40.425766-9.210934q-27.632802-3.070311-36.843736 8.187497t-5.117186 37.867173q2.046874 14.32812 9.722653 41.449203t16.374994 56.289041 16.886712 53.730448 13.304682 33.773425q6.140623 14.32812 13.816401 26.097646t22.003898 26.097646z"  horiz-adv-x="1028" />
      
      <glyph glyph-name="chakan" unicode="&#58880;" d="M928.842245 383.908926c0 5.006014-0.846274 9.193383-1.086751 9.691733-0.182149 2.480494-1.028423 7.001461-1.815345 9.374508-0.210801 0.590448-0.484024 1.209548-0.724501 1.799996-0.424672 1.360997-0.876973 2.691295-1.390673 3.749394-76.871785 168.137395-242.376213 281.144168-411.782507 281.144168-169.375595 0-334.865697-112.902396-411.388535-280.130072-0.921999-1.815345-1.572822-3.553942-1.981121-5.066389-0.181125-0.49835-0.39295-0.967024-0.558725-1.406023-1.512447-4.430916-1.542122-7.514137-1.421372-6.712889-0.710175-3.251044-1.360997-9.722432-1.360997-9.722432-0.181125-1.949398-0.181125-3.50687 0.030699-5.442966 0 0 0.649799-5.65479 0.968048-6.80294 0.090051-1.602498 0.483001-3.931542 0.951675-6.048763l-0.030699 0c0.408299-1.814322 0.968048-3.568269 1.738597-5.291516 0.393973-1.330298 0.862647-2.570545 1.270946-3.507894 76.976162-168.166047 242.436588-281.20352 411.781484-281.20352 169.436994 0 334.941422 112.945375 410.936233 279.328823 1.177825 2.177596 1.935072 4.233418 2.448772 6.018064 0.2415 0.543376 0.454348 1.027399 0.604774 1.511423 1.331321 3.872191 1.602498 7.227612 1.481747 7.227612l-0.028653-0.029676C928.027693 375.078817 928.842245 379.10041 928.842245 383.908926zM872.717993 381.853104c-0.029676-0.121773-0.091074-0.272199-0.151449-0.393973-0.090051-0.36225-0.240477-0.785899-0.332575-1.209548-68.403926-147.420561-212.830293-246.337431-360.191502-246.337431-146.997935 0-291.168476 98.642624-360.252901 246.578931-0.166799 0.5137-0.287549 0.998747-0.468674 1.481747-0.030699 0.484024-0.12075 0.876973-0.150426 1.150196-0.060375 0.300852-0.12075 0.724501-0.166799 1.088798l0 0.3776c0.166799 0.620124 0.286526 1.239224 0.347924 1.919722 0.12075 0.36225 0.211824 0.710175 0.347924 1.103124C220.132094 535.10958 364.680235 634.071476 512.041444 634.071476c147.420561 0 291.940049-99.051947 360.161826-246.322082 0.060375-0.287549 0.121773-0.530073 0.212848-0.726547 0.060375-0.2415 0.119727-0.484024 0.240477-0.740874 0.151449-1.104147 0.272199-2.192945 0.423649-2.736321C872.899118 382.971577 872.809067 382.427178 872.717993 381.853104zM512.041444 522.939399c-76.598562 0-138.954749-62.325487-138.954749-138.939399 0-76.598562 62.356187-138.954749 138.954749-138.954749 76.598562 0 138.954749 62.356187 138.954749 138.954749C650.996193 460.613912 588.640006 522.939399 512.041444 522.939399zM512.041444 300.627151c-45.935192 0-83.371826 37.406958-83.371826 83.371826 0 45.950542 37.436634 83.356476 83.371826 83.356476 45.964868 0 83.373873-37.406958 83.373873-83.356476C595.414293 338.034109 558.006312 300.627151 512.041444 300.627151z"  horiz-adv-x="1024" />
      
      <glyph glyph-name="xianluguanli" unicode="&#58899;" d="M172.8-29.867c-4.267-21.333-21.333-36.266-38.4-34.133-17.067 2.133-29.867 23.467-25.6 44.8L247.467 823.467c4.266 21.333 21.333 36.266 38.4 34.133 17.066-2.133 29.866-23.467 25.6-44.8L172.8-29.867zM552.533 608c0-10.667-12.8-21.333-29.866-21.333-17.067 0-29.867 8.533-29.867 21.333V802.133c0 10.667 12.8 21.334 29.867 21.334 17.066 0 29.866-8.534 29.866-21.334V608z m0-320c0-12.8-12.8-23.467-29.866-23.467C505.6 264.533 492.8 275.2 492.8 288V505.6c0 12.8 12.8 23.467 29.867 23.467 17.066 0 29.866-10.667 29.866-23.467V288z m0-328.533c0-12.8-12.8-23.467-29.866-23.467-17.067 0-29.867 10.667-29.867 23.467v217.6c0 12.8 12.8 23.466 29.867 23.466 17.066 0 29.866-10.666 29.866-23.466v-217.6z m300.8 8.533c4.267-21.333 21.334-36.267 38.4-34.133 17.067 2.133 29.867 23.466 25.6 44.8L778.667 821.333c-4.267 21.334-21.334 36.267-38.4 34.134-19.2-4.267-29.867-23.467-25.6-44.8L853.333-32z"  horiz-adv-x="1024" />
      
      <glyph glyph-name="xianluzhandianguanli" unicode="&#58900;" d="M802.464 344.028c53.645 73.803 94.846 136.448 94.846 207.319 0 115.108-90.861 208.358-203.055 208.358s-203.053-93.314-203.053-208.358c0-63.627 35.315-124.38 81.478-190.022l-55.546-18.929-107.657 36.22c13.303 23.689 21.826 46.66 21.826 71.388 0 65.325-49.662 118.24-110.848 118.24-61.248 0-110.842-52.915-110.842-118.24 0-27.279 11.217-53.705 27.467-81.047l-0.491-0.064L85.15 8.296l228.804 91.881 208.205-91.881 195.454 91.881 225.86-91.881-141.011 335.733zM694.315 652.557c54.443 0 98.588-45.286 98.588-101.21s-44.207-101.278-98.588-101.278c-54.502 0-98.583 45.355-98.583 101.278 0.002 55.923 44.083 101.21 98.583 101.21zM320.521 507.43c29.668 0 53.828-25.713 53.828-57.427 0-31.648-24.16-57.423-53.828-57.423-29.734 0-53.833 25.775-53.833 57.423-0.002 31.714 24.096 57.427 53.833 57.427zM713.69 154.788l-191.65-88.354-204.279 88.354-152.356-73.867 87.307 239.748 14.225 2.869c17.348-24.663 36.292-50.703 53.585-79.607 21.515 36.608 44.141 67.019 63.45 94.946l133.289-45.549 83.437 28.907c30.534-41.696 63.394-85.677 93.559-134.163 28.262 46.202 57.51 86.528 84.915 123.921l88.034-234.007-153.515 76.802z"  horiz-adv-x="1024" />
      
      <glyph glyph-name="yuangongguanli" unicode="&#58901;" d="M512 441.4c107.7 0 195 87.3 195 195s-87.3 195-195 195.1c-107.7 0-195-87.3-195.1-195v-0.1c0.1-107.7 87.4-195 195.1-195zM183 310.1c-38.5-97.4-77.4-373.6-77.4-373.6h331.3l-99.6 456.2c-60 0-115.8 14.8-154.3-82.6z m329 82.6l-94-131.3 74-324.9h40l74 324.9z m329-82.6c-38.5 97.4-94.3 82.6-154.3 82.6l-99.6-456.2h331.3S879.5 212.7 841 310.1z m-31.9-168.7H692.9v25.9h116.2v-25.9z"  horiz-adv-x="1024" />
      
      <glyph glyph-name="chexingxinxiguanli" unicode="&#58902;" d="M847.36-25.088c-16.384 0-29.184 13.312-29.184 29.184v63.488c0 16.384 13.312 29.184 29.184 29.184s29.184-13.312 29.184-29.184v-63.488c0-15.872-13.312-29.184-29.184-29.184zM918.016 302.592h-41.984c-16.384 0-29.184 13.312-29.184 29.184s13.312 29.184 29.184 29.184h41.984c16.384 0 29.184-13.312 29.184-29.184s-12.8-29.184-29.184-29.184zM568.32-37.376H137.728c-40.448 0-73.216 32.768-73.216 73.216V665.6c0 40.448 32.768 73.216 73.216 73.216h97.792c16.384 0 29.184-13.312 29.184-29.184 0-16.384-13.312-29.184-29.184-29.184h-97.792c-8.192 0-14.848-6.656-14.848-14.848v-629.76c0-8.192 6.656-14.848 14.848-14.848H568.32c8.192 0 14.848 6.656 14.848 14.848V665.6c0 8.192-6.656 14.848-14.848 14.848h-95.744c-16.384 0-29.184 13.312-29.184 29.184 0 16.384 13.312 29.184 29.184 29.184h95.744c40.448 0 73.216-32.768 73.216-73.216v-629.76c0-39.936-32.768-73.216-73.216-73.216zM451.584 746.496H253.952c-16.384 0-29.184 13.312-29.184 29.184s13.312 29.184 29.184 29.184h197.632c16.384 0 29.184-13.312 29.184-29.184s-12.8-29.184-29.184-29.184zM671.744 445.952H634.88c-16.384 0-29.184 13.312-29.184 29.184s13.312 29.184 29.184 29.184h36.864c16.384 0 29.184-13.312 29.184-29.184s-12.8-29.184-29.184-29.184zM877.568 222.72c-14.848 0-27.136 10.752-29.184 25.6L829.44 407.04v2.048c-1.024 10.752-6.144 36.352-39.424 36.352H634.88c-16.384 0-29.184 13.312-29.184 29.184s13.312 29.184 29.184 29.184h155.136c68.096 0 95.744-54.272 97.792-91.136l18.944-158.208c2.048-15.872-9.728-30.72-25.6-32.768-1.024 1.024-2.56 1.024-3.584 1.024zM896.512 39.936H611.84c-16.384 0-29.184 13.312-29.184 29.184s13.312 29.184 29.184 29.184h284.672c8.192 0 14.848 6.656 14.848 14.848v83.456c0 8.192-6.656 14.848-14.848 14.848H611.84c-16.384 0-29.184 13.312-29.184 29.184 0 16.384 13.312 29.184 29.184 29.184h284.672c40.448 0 73.216-32.768 73.216-73.216v-83.456c0-40.448-32.768-73.216-73.216-73.216zM801.792 156.16a7.2 7.2 0 1 1 73.728 0 7.2 7.2 0 1 1-73.728 0zM338.432 230.912c-16.384 0-29.184 13.312-29.184 29.184v76.288c0 16.384 13.312 29.184 29.184 29.184 42.496 0 76.8 34.304 76.8 76.8 0 42.496-34.304 76.8-76.8 76.8-42.496 0-76.8-34.304-76.8-76.8 0-16.384-13.312-29.184-29.184-29.184-16.384 0-29.184 13.312-29.184 29.184 0 74.752 60.416 135.168 135.168 135.168S473.6 517.12 473.6 442.368c0-64.512-45.568-118.784-105.984-132.096v-50.176c0-16.384-13.312-29.184-29.184-29.184zM337.408 78.848c-16.384 0-29.184 13.312-29.184 29.184V166.4c0 16.384 13.312 29.184 29.184 29.184 16.384 0 29.184-13.312 29.184-29.184v-58.368c0-15.872-13.312-29.184-29.184-29.184z"  horiz-adv-x="1024" />
      
      <glyph glyph-name="luduiguanli" unicode="&#58904;" d="M326.4 896C211.2 896 115.2 803.2 115.2 691.2c0-108.8 201.6-323.2 201.6-323.2l9.6-9.6 9.6 9.6s201.6 211.2 201.6 323.2C534.4 803.2 441.6 896 326.4 896z m0-326.4c-64 0-115.2 51.2-115.2 115.2S265.6 800 326.4 800s115.2-51.2 115.2-115.2-51.2-115.2-115.2-115.2z m278.4-464L768 246.4l160-19.2L886.4 432H585.6v-92.8l-192-150.4 99.2-131.2 112 48z m-137.6-92.8l-185.6 256L64 118.4 22.4-128h598.4l-35.2 176-118.4-35.2zM937.6 176l-144 19.2-160-134.4L672-128h329.6l-64 304z m-332.8-70.4L768 246.4l160-19.2L886.4 432H585.6v-92.8l-192-150.4 99.2-131.2 112 48z m-137.6-92.8l-185.6 256L64 118.4 22.4-128h598.4l-35.2 176-118.4-35.2zM937.6 176l-144 19.2-160-134.4L672-128h329.6l-64 304z m-496 252.8h-16C377.6 368 336 323.2 336 323.2l-9.6-9.6-9.6 9.6s-41.6 44.8-89.6 105.6h-112L73.6 169.6l204.8 163.2 80-108.8 176 131.2v70.4h-12.8l-80 3.2z"  horiz-adv-x="1024" />
      
      <glyph glyph-name="jichuxinxiguanli" unicode="&#58905;" d="M513.1-126.9c-68.7 0-135.3 13.5-198 40-60.6 25.6-115 62.3-161.7 109S70 123.2 44.4 183.8c-26.5 62.7-40 129.3-40 198 0 68.6 13.5 135.3 40 198 25.6 60.6 62.3 115 109 161.7s101.1 83.4 161.7 109c62.7 26.5 129.3 40 198 40s135.3-13.5 198-40c60.6-25.6 115-62.3 161.7-109s83.4-101.1 109-161.7c26.5-62.7 40-129.3 40-198 0-68.7-13.5-135.3-40-198-25.6-60.6-62.3-115-109-161.7S771.6-61.3 711-87c-62.7-26.5-129.3-39.9-197.9-39.9z m0 969.2c-254 0-460.6-206.6-460.6-460.6s206.6-460.6 460.6-460.6 460.6 206.6 460.6 460.6S767 842.3 513.1 842.3zM513.5-17.8l-0.1 48c14.7 0 29.6 1 44.1 2.8l6-47.6c-16.4-2.1-33.3-3.2-50-3.2z m-50 3c-16.6 2.1-33.2 5.2-49.3 9.3L426 41c14.2-3.6 28.8-6.4 43.4-8.2l-5.9-47.6z m149.3 9.5l-12 46.5c14.2 3.7 28.3 8.2 41.9 13.7l17.7-44.6c-15.4-6.2-31.4-11.4-47.6-15.6zM366.4 10c-15.5 6.1-30.8 13.3-45.4 21.3l23.1 42.1c12.9-7.1 26.3-13.4 39.9-18.8L366.4 10z m339.5 21.7l-23.2 42c12.8 7.1 25.3 15.1 37.2 23.7l28.3-38.8c-13.5-9.8-27.7-18.9-42.3-26.9z m-427.3 26.5c-13.5 9.8-26.5 20.5-38.7 31.9l32.8 35c10.7-10 22.2-19.5 34-28.1l-28.1-38.8z m508.2 32.4l-32.9 35c10.7 10.1 20.9 20.9 30.2 32.2l37-30.6c-10.7-12.8-22.2-25.1-34.3-36.6z m-581.2 36c-10.7 12.8-20.6 26.5-29.6 40.5l40.5 25.8c7.9-12.4 16.6-24.3 26-35.6l-36.9-30.7z m644.9 41.2L810 193.5c7.9 12.4 15 25.4 21.3 38.7l43.4-20.4c-7.1-15.1-15.2-29.9-24.2-44zM151.8 211c-7.1 15.1-13.4 30.8-18.6 46.6l45.6 14.9c4.5-13.9 10-27.7 16.3-41L151.8 211z m741.4 47.4l-45.7 14.8c4.5 13.9 8.2 28.3 10.9 42.7l47.2-8.9c-3.1-16.3-7.3-32.7-12.4-48.6z m-772.5 47.8c-3.1 16.3-5.2 33.1-6.3 49.8l47.9 3c0.9-14.7 2.8-29.4 5.5-43.8l-47.1-9z m791.1 50.6l-47.9 2.9c0.4 7.2 0.7 14.6 0.7 21.9 0 7.4-0.2 14.9-0.7 22.3l47.9 3c0.5-8.4 0.8-16.9 0.8-25.3 0-8.2-0.3-16.5-0.8-24.8z m-749.6 46.4l-47.9 2.9c1 16.7 3.1 33.4 6.1 49.8l47.2-8.9c-2.7-14.4-4.5-29.1-5.4-43.8z m696.2 44.5c-2.7 14.4-6.4 28.8-11 42.7l45.6 14.8c5.2-15.9 9.3-32.2 12.5-48.6l-47.1-8.9z m-679.9 42l-45.7 14.7c5.1 15.9 11.3 31.6 18.4 46.7l43.5-20.4c-6.3-13.2-11.7-27-16.2-41z m652.7 41.8c-6.2 13.2-13.4 26.2-21.3 38.6l40.5 25.8c9-14.1 17.1-28.8 24.2-43.9l-43.4-20.5z m-615.3 38l-40.6 25.7c8.9 14.1 18.8 27.7 29.4 40.6l37-30.5c-9.2-11.4-18-23.4-25.8-35.8z m568 36.3c-9.4 11.3-19.5 22.1-30.2 32.2l32.9 35c12.2-11.4 23.7-23.7 34.3-36.5l-37-30.7zM272 637.5l-32.9 34.9c12.1 11.4 25.1 22.2 38.6 32l28.3-38.8c-11.9-8.6-23.3-18.1-34-28.1z m447.6 28.6c-11.9 8.6-24.4 16.6-37.3 23.7l23.2 42c14.6-8 28.8-17.1 42.3-26.9l-28.2-38.8z m-376.5 23.3l-23.2 42c14.6 8.1 29.8 15.3 45.3 21.5l17.8-44.6c-13.7-5.4-27.1-11.8-39.9-18.9z m299.4 19.2c-13.6 5.4-27.8 10-42 13.6l11.9 46.5c16.2-4.1 32.2-9.4 47.8-15.5l-17.7-44.6zM424.9 722l-12 46.5c16.1 4.2 32.7 7.3 49.3 9.5l6.1-47.6c-14.7-1.9-29.2-4.7-43.4-8.4z m132.2 8.4c-14.5 1.8-29.3 2.7-44.1 2.7h-0.8l-0.2 48h0.9c16.7 0 33.5-1 50-3.1l-5.8-47.6zM513.1-126.9c-68.7 0-135.3 13.5-198 40-60.6 25.6-115 62.3-161.7 109S70 123.2 44.4 183.8c-26.5 62.7-40 129.3-40 198 0 68.6 13.5 135.3 40 198 25.6 60.6 62.3 115 109 161.7s101.1 83.4 161.7 109c62.7 26.5 129.3 40 198 40s135.3-13.5 198-40c60.6-25.6 115-62.3 161.7-109s83.4-101.1 109-161.7c26.5-62.7 40-129.3 40-198 0-68.7-13.5-135.3-40-198-25.6-60.6-62.3-115-109-161.7S771.6-61.3 711-87c-62.7-26.5-129.3-39.9-197.9-39.9z m0 969.2c-254 0-460.6-206.6-460.6-460.6s206.6-460.6 460.6-460.6 460.6 206.6 460.6 460.6S767 842.3 513.1 842.3zM513.5-17.8l-0.1 48c14.7 0 29.6 1 44.1 2.8l6-47.6c-16.4-2.1-33.3-3.2-50-3.2z m-50 3c-16.6 2.1-33.2 5.2-49.3 9.3L426 41c14.2-3.6 28.8-6.4 43.4-8.2l-5.9-47.6z m149.3 9.5l-12 46.5c14.2 3.7 28.3 8.2 41.9 13.7l17.7-44.6c-15.4-6.2-31.4-11.4-47.6-15.6zM366.4 10c-15.5 6.1-30.8 13.3-45.4 21.3l23.1 42.1c12.9-7.1 26.3-13.4 39.9-18.8L366.4 10z m339.5 21.7l-23.2 42c12.8 7.1 25.3 15.1 37.2 23.7l28.3-38.8c-13.5-9.8-27.7-18.9-42.3-26.9z m-427.3 26.5c-13.5 9.8-26.5 20.5-38.7 31.9l32.8 35c10.7-10 22.2-19.5 34-28.1l-28.1-38.8z m508.2 32.4l-32.9 35c10.7 10.1 20.9 20.9 30.2 32.2l37-30.6c-10.7-12.8-22.2-25.1-34.3-36.6z m-581.2 36c-10.7 12.8-20.6 26.5-29.6 40.5l40.5 25.8c7.9-12.4 16.6-24.3 26-35.6l-36.9-30.7z m644.9 41.2L810 193.5c7.9 12.4 15 25.4 21.3 38.7l43.4-20.4c-7.1-15.1-15.2-29.9-24.2-44zM151.8 211c-7.1 15.1-13.4 30.8-18.6 46.6l45.6 14.9c4.5-13.9 10-27.7 16.3-41L151.8 211z m741.4 47.4l-45.7 14.8c4.5 13.9 8.2 28.3 10.9 42.7l47.2-8.9c-3.1-16.3-7.3-32.7-12.4-48.6z m-772.5 47.8c-3.1 16.3-5.2 33.1-6.3 49.8l47.9 3c0.9-14.7 2.8-29.4 5.5-43.8l-47.1-9z m791.1 50.6l-47.9 2.9c0.4 7.2 0.7 14.6 0.7 21.9 0 7.4-0.2 14.9-0.7 22.3l47.9 3c0.5-8.4 0.8-16.9 0.8-25.3 0-8.2-0.3-16.5-0.8-24.8z m-749.6 46.4l-47.9 2.9c1 16.7 3.1 33.4 6.1 49.8l47.2-8.9c-2.7-14.4-4.5-29.1-5.4-43.8z m696.2 44.5c-2.7 14.4-6.4 28.8-11 42.7l45.6 14.8c5.2-15.9 9.3-32.2 12.5-48.6l-47.1-8.9z m-679.9 42l-45.7 14.7c5.1 15.9 11.3 31.6 18.4 46.7l43.5-20.4c-6.3-13.2-11.7-27-16.2-41z m652.7 41.8c-6.2 13.2-13.4 26.2-21.3 38.6l40.5 25.8c9-14.1 17.1-28.8 24.2-43.9l-43.4-20.5z m-615.3 38l-40.6 25.7c8.9 14.1 18.8 27.7 29.4 40.6l37-30.5c-9.2-11.4-18-23.4-25.8-35.8z m568 36.3c-9.4 11.3-19.5 22.1-30.2 32.2l32.9 35c12.2-11.4 23.7-23.7 34.3-36.5l-37-30.7zM272 637.5l-32.9 34.9c12.1 11.4 25.1 22.2 38.6 32l28.3-38.8c-11.9-8.6-23.3-18.1-34-28.1z m447.6 28.6c-11.9 8.6-24.4 16.6-37.3 23.7l23.2 42c14.6-8 28.8-17.1 42.3-26.9l-28.2-38.8z m-376.5 23.3l-23.2 42c14.6 8.1 29.8 15.3 45.3 21.5l17.8-44.6c-13.7-5.4-27.1-11.8-39.9-18.9z m299.4 19.2c-13.6 5.4-27.8 10-42 13.6l11.9 46.5c16.2-4.1 32.2-9.4 47.8-15.5l-17.7-44.6zM424.9 722l-12 46.5c16.1 4.2 32.7 7.3 49.3 9.5l6.1-47.6c-14.7-1.9-29.2-4.7-43.4-8.4z m132.2 8.4c-14.5 1.8-29.3 2.7-44.1 2.7h-0.8l-0.2 48h0.9c16.7 0 33.5-1 50-3.1l-5.8-47.6zM513.1-126.9c-68.7 0-135.3 13.5-198 40-60.6 25.6-115 62.3-161.7 109S70 123.2 44.4 183.8c-26.5 62.7-40 129.3-40 198 0 68.6 13.5 135.3 40 198 25.6 60.6 62.3 115 109 161.7s101.1 83.4 161.7 109c62.7 26.5 129.3 40 198 40s135.3-13.5 198-40c60.6-25.6 115-62.3 161.7-109s83.4-101.1 109-161.7c26.5-62.7 40-129.3 40-198 0-68.7-13.5-135.3-40-198-25.6-60.6-62.3-115-109-161.7S771.6-61.3 711-87c-62.7-26.5-129.3-39.9-197.9-39.9z m0 969.2c-254 0-460.6-206.6-460.6-460.6s206.6-460.6 460.6-460.6 460.6 206.6 460.6 460.6S767 842.3 513.1 842.3zM513.5-17.8l-0.1 48c14.7 0 29.6 1 44.1 2.8l6-47.6c-16.4-2.1-33.3-3.2-50-3.2z m-50 3c-16.6 2.1-33.2 5.2-49.3 9.3L426 41c14.2-3.6 28.8-6.4 43.4-8.2l-5.9-47.6z m149.3 9.5l-12 46.5c14.2 3.7 28.3 8.2 41.9 13.7l17.7-44.6c-15.4-6.2-31.4-11.4-47.6-15.6zM366.4 10c-15.5 6.1-30.8 13.3-45.4 21.3l23.1 42.1c12.9-7.1 26.3-13.4 39.9-18.8L366.4 10z m339.5 21.7l-23.2 42c12.8 7.1 25.3 15.1 37.2 23.7l28.3-38.8c-13.5-9.8-27.7-18.9-42.3-26.9z m-427.3 26.5c-13.5 9.8-26.5 20.5-38.7 31.9l32.8 35c10.7-10 22.2-19.5 34-28.1l-28.1-38.8z m508.2 32.4l-32.9 35c10.7 10.1 20.9 20.9 30.2 32.2l37-30.6c-10.7-12.8-22.2-25.1-34.3-36.6z m-581.2 36c-10.7 12.8-20.6 26.5-29.6 40.5l40.5 25.8c7.9-12.4 16.6-24.3 26-35.6l-36.9-30.7z m644.9 41.2L810 193.5c7.9 12.4 15 25.4 21.3 38.7l43.4-20.4c-7.1-15.1-15.2-29.9-24.2-44zM151.8 211c-7.1 15.1-13.4 30.8-18.6 46.6l45.6 14.9c4.5-13.9 10-27.7 16.3-41L151.8 211z m741.4 47.4l-45.7 14.8c4.5 13.9 8.2 28.3 10.9 42.7l47.2-8.9c-3.1-16.3-7.3-32.7-12.4-48.6z m-772.5 47.8c-3.1 16.3-5.2 33.1-6.3 49.8l47.9 3c0.9-14.7 2.8-29.4 5.5-43.8l-47.1-9z m791.1 50.6l-47.9 2.9c0.4 7.2 0.7 14.6 0.7 21.9 0 7.4-0.2 14.9-0.7 22.3l47.9 3c0.5-8.4 0.8-16.9 0.8-25.3 0-8.2-0.3-16.5-0.8-24.8z m-749.6 46.4l-47.9 2.9c1 16.7 3.1 33.4 6.1 49.8l47.2-8.9c-2.7-14.4-4.5-29.1-5.4-43.8z m696.2 44.5c-2.7 14.4-6.4 28.8-11 42.7l45.6 14.8c5.2-15.9 9.3-32.2 12.5-48.6l-47.1-8.9z m-679.9 42l-45.7 14.7c5.1 15.9 11.3 31.6 18.4 46.7l43.5-20.4c-6.3-13.2-11.7-27-16.2-41z m652.7 41.8c-6.2 13.2-13.4 26.2-21.3 38.6l40.5 25.8c9-14.1 17.1-28.8 24.2-43.9l-43.4-20.5z m-615.3 38l-40.6 25.7c8.9 14.1 18.8 27.7 29.4 40.6l37-30.5c-9.2-11.4-18-23.4-25.8-35.8z m568 36.3c-9.4 11.3-19.5 22.1-30.2 32.2l32.9 35c12.2-11.4 23.7-23.7 34.3-36.5l-37-30.7zM272 637.5l-32.9 34.9c12.1 11.4 25.1 22.2 38.6 32l28.3-38.8c-11.9-8.6-23.3-18.1-34-28.1z m447.6 28.6c-11.9 8.6-24.4 16.6-37.3 23.7l23.2 42c14.6-8 28.8-17.1 42.3-26.9l-28.2-38.8z m-376.5 23.3l-23.2 42c14.6 8.1 29.8 15.3 45.3 21.5l17.8-44.6c-13.7-5.4-27.1-11.8-39.9-18.9z m299.4 19.2c-13.6 5.4-27.8 10-42 13.6l11.9 46.5c16.2-4.1 32.2-9.4 47.8-15.5l-17.7-44.6zM424.9 722l-12 46.5c16.1 4.2 32.7 7.3 49.3 9.5l6.1-47.6c-14.7-1.9-29.2-4.7-43.4-8.4z m132.2 8.4c-14.5 1.8-29.3 2.7-44.1 2.7h-0.8l-0.2 48h0.9c16.7 0 33.5-1 50-3.1l-5.8-47.6zM513.1-126.9c-68.7 0-135.3 13.5-198 40-60.6 25.6-115 62.3-161.7 109S70 123.2 44.4 183.8c-26.5 62.7-40 129.3-40 198 0 68.6 13.5 135.3 40 198 25.6 60.6 62.3 115 109 161.7s101.1 83.4 161.7 109c62.7 26.5 129.3 40 198 40s135.3-13.5 198-40c60.6-25.6 115-62.3 161.7-109s83.4-101.1 109-161.7c26.5-62.7 40-129.3 40-198 0-68.7-13.5-135.3-40-198-25.6-60.6-62.3-115-109-161.7S771.6-61.3 711-87c-62.7-26.5-129.3-39.9-197.9-39.9z m0 969.2c-254 0-460.6-206.6-460.6-460.6s206.6-460.6 460.6-460.6 460.6 206.6 460.6 460.6S767 842.3 513.1 842.3zM513.5-17.8l-0.1 48c14.7 0 29.6 1 44.1 2.8l6-47.6c-16.4-2.1-33.3-3.2-50-3.2z m-50 3c-16.6 2.1-33.2 5.2-49.3 9.3L426 41c14.2-3.6 28.8-6.4 43.4-8.2l-5.9-47.6z m149.3 9.5l-12 46.5c14.2 3.7 28.3 8.2 41.9 13.7l17.7-44.6c-15.4-6.2-31.4-11.4-47.6-15.6zM366.4 10c-15.5 6.1-30.8 13.3-45.4 21.3l23.1 42.1c12.9-7.1 26.3-13.4 39.9-18.8L366.4 10z m339.5 21.7l-23.2 42c12.8 7.1 25.3 15.1 37.2 23.7l28.3-38.8c-13.5-9.8-27.7-18.9-42.3-26.9z m-427.3 26.5c-13.5 9.8-26.5 20.5-38.7 31.9l32.8 35c10.7-10 22.2-19.5 34-28.1l-28.1-38.8z m508.2 32.4l-32.9 35c10.7 10.1 20.9 20.9 30.2 32.2l37-30.6c-10.7-12.8-22.2-25.1-34.3-36.6z m-581.2 36c-10.7 12.8-20.6 26.5-29.6 40.5l40.5 25.8c7.9-12.4 16.6-24.3 26-35.6l-36.9-30.7z m644.9 41.2L810 193.5c7.9 12.4 15 25.4 21.3 38.7l43.4-20.4c-7.1-15.1-15.2-29.9-24.2-44zM151.8 211c-7.1 15.1-13.4 30.8-18.6 46.6l45.6 14.9c4.5-13.9 10-27.7 16.3-41L151.8 211z m741.4 47.4l-45.7 14.8c4.5 13.9 8.2 28.3 10.9 42.7l47.2-8.9c-3.1-16.3-7.3-32.7-12.4-48.6z m-772.5 47.8c-3.1 16.3-5.2 33.1-6.3 49.8l47.9 3c0.9-14.7 2.8-29.4 5.5-43.8l-47.1-9z m791.1 50.6l-47.9 2.9c0.4 7.2 0.7 14.6 0.7 21.9 0 7.4-0.2 14.9-0.7 22.3l47.9 3c0.5-8.4 0.8-16.9 0.8-25.3 0-8.2-0.3-16.5-0.8-24.8z m-749.6 46.4l-47.9 2.9c1 16.7 3.1 33.4 6.1 49.8l47.2-8.9c-2.7-14.4-4.5-29.1-5.4-43.8z m696.2 44.5c-2.7 14.4-6.4 28.8-11 42.7l45.6 14.8c5.2-15.9 9.3-32.2 12.5-48.6l-47.1-8.9z m-679.9 42l-45.7 14.7c5.1 15.9 11.3 31.6 18.4 46.7l43.5-20.4c-6.3-13.2-11.7-27-16.2-41z m652.7 41.8c-6.2 13.2-13.4 26.2-21.3 38.6l40.5 25.8c9-14.1 17.1-28.8 24.2-43.9l-43.4-20.5z m-615.3 38l-40.6 25.7c8.9 14.1 18.8 27.7 29.4 40.6l37-30.5c-9.2-11.4-18-23.4-25.8-35.8z m568 36.3c-9.4 11.3-19.5 22.1-30.2 32.2l32.9 35c12.2-11.4 23.7-23.7 34.3-36.5l-37-30.7zM272 637.5l-32.9 34.9c12.1 11.4 25.1 22.2 38.6 32l28.3-38.8c-11.9-8.6-23.3-18.1-34-28.1z m447.6 28.6c-11.9 8.6-24.4 16.6-37.3 23.7l23.2 42c14.6-8 28.8-17.1 42.3-26.9l-28.2-38.8z m-376.5 23.3l-23.2 42c14.6 8.1 29.8 15.3 45.3 21.5l17.8-44.6c-13.7-5.4-27.1-11.8-39.9-18.9z m299.4 19.2c-13.6 5.4-27.8 10-42 13.6l11.9 46.5c16.2-4.1 32.2-9.4 47.8-15.5l-17.7-44.6zM424.9 722l-12 46.5c16.1 4.2 32.7 7.3 49.3 9.5l6.1-47.6c-14.7-1.9-29.2-4.7-43.4-8.4z m132.2 8.4c-14.5 1.8-29.3 2.7-44.1 2.7h-0.8l-0.2 48h0.9c16.7 0 33.5-1 50-3.1l-5.8-47.6zM685.3 533.8l-55.6 57.5c-11.4 11.8-26.9 18.4-43 18.4H353.4c-16.7 0-30.4-14.2-30.4-31.5V185c0-17.3 13.7-31.4 30.4-31.4h319.3c16.7 0 30.4 14.1 30.4 31.4V489.3c0 16.7-6.4 32.7-17.8 44.5zM406.6 488h121.6c8.4 0 15.2-7 15.2-15.7s-6.8-15.7-15.2-15.7H406.6c-8.4 0-15.2 7.1-15.2 15.7 0 8.7 6.8 15.7 15.2 15.7z m212.9-251.7H406.6c-8.4 0-15.2 7.1-15.2 15.7 0 8.7 6.8 15.7 15.2 15.7h212.9c8.4 0 15.2-7 15.2-15.7 0-8.6-6.8-15.7-15.2-15.7z m0 110.1H406.6c-8.4 0-15.2 7.1-15.2 15.7 0 8.7 6.8 15.7 15.2 15.7h212.9c8.4 0 15.2-7 15.2-15.7 0-8.6-6.8-15.7-15.2-15.7z"  horiz-adv-x="1024" />
      
      <glyph glyph-name="hangyeguanli" unicode="&#58898;" d="M343.33 613.103c0 9.42 6.212 17.8 15.48 20.907l217.207 72.977v-530.79h-232.67V613.102zM714.7 517.46c8.363-3.754 13.74-11.81 13.74-20.548v-320.717H610.15v388.37l104.568-47.105z m47.873-341.265V496.93c0 22.119-13.312 42.41-33.878 51.66l-118.562 53.42V730.692a17.033 17.033 0 0 1-7.1 13.858 17.237 17.237 0 0 1-15.41 2.321l-239.634-80.52a56.286 56.286 0 0 1-38.792-53.248v-436.907H207.24v-34.304h647.97v34.304H762.59zM351.693 480.802h190.566V497.87H351.693z m0-190.566h190.566v17.066H351.693z m295.065 38.11h76.22v17.066h-76.22z"  horiz-adv-x="1024" />
      
      <glyph glyph-name="chezaishebeiguanli" unicode="&#58897;" d="M484.553 330.662a32.212 32.212 0 1 1 64.424 0 32.212 32.212 0 1 1-64.424 0zM420.929 379.551c-3.873-13.404-7.312-27.1-8.907-40.98-1.172-10.206 1.113-20.995 3.248-30.936 1.495-6.967 3.356-13.917 5.659-20.663 3.471-10.177 19.675-5.81 16.172 4.457-4.996 14.643-9.854 31.586-8.306 47.145 1.223 12.287 4.887 24.68 8.306 36.52 3.01 10.414-13.176 14.829-16.172 4.457zM395.01 409.912c-2.48-9.737-4.751-19.53-6.906-29.344-3.303-15.056-7.059-30.713-7.458-46.185-0.388-15.015 3.895-30.787 7.057-45.352a852.496 852.496 0 0 1 7.306-30.939c2.686-10.47 18.863-6.025 16.173 4.46a896.12 896.12 0 0 0-6.75 28.41c-3.092 13.918-6.869 28.422-7.019 42.67-0.148 14.085 3.864 28.695 6.866 42.478a867.596 867.596 0 0 0 6.903 29.344c2.672 10.487-13.505 14.934-16.173 4.458z m-34.064 17.033c-3.847-13.424-7.359-26.953-10.628-40.526-4.375-18.17-8.832-36.77-8.96-55.542-0.23-33.545 8.371-66.781 14.726-99.506l0.419-2.16c2.06-10.612 18.224-6.107 16.172 4.461-4.378 22.549-9.123 45.085-12.645 67.791-0.233 1.5-0.45 3-0.657 4.503 0.281-2.027-0.22 1.844-0.291 2.464a147.317 147.317 0 0 0-0.64 7.129c-0.325 4.875-0.34 9.766-0.314 14.65 0.089 17.533 4.247 34.52 8.365 51.748a938.68 938.68 0 0 0 10.628 40.526c2.985 10.422-13.2 14.84-16.175 4.462zM593.598 373.1c3.435-11.895 6.89-24.2 8.308-36.52 1.77-15.428-3.354-32.627-8.308-47.144-3.5-10.266 12.701-14.636 16.174-4.458 5.434 15.924 10.585 34.702 8.905 51.6-1.376 13.854-5.048 27.63-8.905 40.98-2.996 10.371-19.183 5.957-16.174-4.458zM619.515 403.462a908.22 908.22 0 0 0 6.629-28.094c3.112-14.078 6.764-28.634 7.135-42.977 0.36-13.97-3.756-28.547-6.736-42.163a852.236 852.236 0 0 0-7.028-29.669c-2.69-10.487 13.487-14.93 16.175-4.461a903.464 903.464 0 0 1 7.028 29.67c3.284 14.897 7.18 30.542 7.34 45.872 0.16 15.168-4.008 30.947-7.19 45.677a869.2 869.2 0 0 1-7.178 30.603c-2.668 10.476-18.844 6.029-16.175-4.458z m34.066 17.03c3.726-13.002 7.132-26.104 10.318-39.248 4.209-17.358 8.547-34.687 8.668-52.359 0.035-4.73 0.015-9.463-0.242-14.188a146.815 146.815 0 0 0-0.569-7.006c-0.447-4.308-0.379-3.52-0.966-7.433-3.45-22.98-8.34-45.775-12.766-68.576-2.052-10.567 14.114-15.072 16.175-4.46 6.44 33.175 15.318 66.982 15.148 100.998-0.094 18.595-4.382 36.91-8.657 54.922a943.983 943.983 0 0 1-10.928 41.789l-0.007 0.023c-2.978 10.377-19.164 5.959-16.174-4.461zM747.15 182.092c-0.629-11.887-15.656-9.075-23.81-9.075H300.737c-8.157 0-16.95-0.41-16.95 10.764V463.373c0 7.584-3.632 29.629 8.681 29.629H734.73c4.252 0 7.305-0.076 10.662-3.497 2.5-2.543 1.758-8.235 1.758-11.564v-295.85c0-17.47 27.093-17.47 27.093 0V483.914c0 19.54-16.22 36.182-35.851 36.182H309.044c-12.09 0-23.463 0.957-34.636-4.938-18.69-9.86-17.714-30.325-17.714-48.076v-281.884c0-21.964 14.972-39.273 37.622-39.273h443.01c20.811 0 35.842 15.828 36.917 36.168 0.925 17.468-26.174 17.377-27.093 0zM796.908 138.396c-0.571-11.463-12.015-9.075-19.995-9.075h-531.7c-9.846 0-8.531 11.096-8.531 17.996V504.825c0 6.338-2.78 25.63 7.41 25.63h545.385c10.11 0 7.432-18.502 7.432-24.85v-139.004l-0.001-228.205c0-17.472 27.093-17.472 27.093 0V517.465c0 20.768-12.617 40.084-35.28 40.084H257.895c-10.996 0-21.09 0.731-31.222-4.938-17.017-9.523-17.086-28.062-17.086-44.764v-358.005c0-18.678 2.894-39.632 24.274-45.98 8.253-2.449 17.434-1.636 25.954-1.636H789.12c20.297 0 33.923 16.966 34.882 36.168 0.87 17.471-26.227 17.388-27.095 0.002z"  horiz-adv-x="1024" />
      
      <glyph glyph-name="bumenguanli" unicode="&#58909;" d="M186.4 417.6c-44 0.8-80-33.6-81.6-77.6v-128H63.2C30.4 212.8 3.2 187.2 2.4 153.6v-170.4c0.8-32.8 28-58.4 60.8-57.6h165.6c32.8-0.8 60 24.8 60.8 58.4V153.6c-0.8 32.8-28 59.2-60.8 58.4h-54.4V350.4h302.4v-139.2h-48c-32.8 0.8-60-24.8-61.6-58.4v-170.4c0.8-32.8 28-58.4 61.6-57.6h166.4c32.8-0.8 60 24.8 60.8 58.4V153.6c-0.8 32.8-28 59.2-60.8 58.4h-48V350.4h302.4v-139.2h-54.4c-32.8 0.8-60-24.8-60.8-58.4v-170.4c0.8-32.8 28-58.4 60.8-57.6h166.4c32.8-0.8 60 24.8 60.8 58.4V153.6c-0.8 32.8-28 59.2-61.6 58.4h-41.6v128c-0.8 44-37.6 78.4-81.6 77.6H186.4z m20.8-272.8c7.2 0 12.8-5.6 12.8-12v-128.8c0-7.2-5.6-12-12.8-12H84.8c-7.2 0-12.8 5.6-12.8 12V132.8c0 7.2 5.6 12 12.8 12h122.4z m366.4 0c7.2 0 12.8-5.6 12.8-12v-128.8c0-7.2-5.6-12-12.8-12H450.4c-7.2 0-12.8 5.6-12.8 12V132.8c0 7.2 5.6 12 12.8 12h123.2z m378.4-140.8c0-7.2-5.6-12-12.8-12h-122.4c-7.2 0-12.8 5.6-12.8 12V132.8c0 7.2 5.6 12 12.8 12h122.4c7.2 0 12.8-5.6 12.8-12v-128.8zM671.2 644.8c-4.8 6.4-4.8 15.2 0 21.6l37.6 45.6-4 10.4-4.8 10.4c-3.2 8-6.4 15.2-9.6 20-4.8 10.4-11.2 20-19.2 28l-7.2 7.2-57.6-8c-8.8-0.8-16.8 4.8-20 12.8L568 845.6l-11.2 1.6c-28.8 6.4-57.6 6.4-86.4 0l-9.6-1.6-20-54.4c-3.2-7.2-10.4-11.2-18.4-11.2h-1.6l-56.8 9.6-8-8c-15.2-18.4-27.2-39.2-35.2-61.6l-4-9.6 37.6-45.6c4.8-5.6 4.8-14.4 0-20.8L315.2 600l4-9.6c3.2-12.8 8.8-24.8 15.2-35.2 4.8-9.6 11.2-18.4 18.4-26.4l7.2-7.2 59.2 9.6c8 0.8 15.2-3.2 18.4-11.2l19.2-54.4 11.2-1.6c28.8-6.4 59.2-6.4 88 0l9.6 2.4 20 56c3.2 7.2 10.4 12 18.4 11.2l57.6-9.6 8 7.2c15.2 17.6 26.4 37.6 34.4 60l4 9.6-36.8 44z m-157.6-71.2c-45.6 0-82.4 36.8-82.4 82.4 0 45.6 36.8 82.4 82.4 82.4 45.6 0 82.4-36.8 82.4-82.4 0-45.6-36.8-81.6-82.4-82.4z"  horiz-adv-x="1024" />
      
      <glyph glyph-name="zhandianguanli" unicode="&#58980;" d="M514.694737 510.652632c48.505263 0 88.926316 40.421053 88.926316 88.926315s-40.421053 88.926316-88.926316 88.926316-88.926316-40.421053-88.926316-88.926316 40.421053-88.926316 88.926316-88.926315z m0 142.821052c29.642105 0 51.2-24.252632 51.2-53.894737s-24.252632-51.2-51.2-51.2c-29.642105 0-51.2 24.252632-51.2 51.2s24.252632 53.894737 51.2 53.894737zM353.010526 521.431579l110.484211-253.305263s0-2.694737 2.694737-2.694737c10.778947-16.168421 26.947368-26.947368 43.115789-26.947368 18.863158 0 35.031579 10.778947 45.810526 32.336842l115.873685 242.526315c16.168421 26.947368 24.252632 59.284211 24.252631 88.926316a180.547368 180.547368 0 0 1-361.094737 0c0-29.642105 5.389474-56.589474 18.863158-80.842105z m161.684211 220.968421c78.147368 0 142.821053-64.673684 142.821052-142.821053 0-26.947368-8.084211-51.2-18.863157-72.757894l-115.873685-242.526316c-2.694737-5.389474-8.084211-10.778947-10.778947-10.778948-2.694737 0-8.084211 2.694737-13.473684 10.778948l-107.789474 250.610526c-10.778947 18.863158-16.168421 40.421053-16.168421 64.673684-2.694737 80.842105 61.978947 142.821053 140.126316 142.821053zM988.968421 30.989474V33.684211v2.694736 2.694737l-134.736842 288.336842s0 2.694737-2.694737 2.694737l-2.694737 2.694737-2.694737 2.694737s-2.694737 0-2.694736 2.694737l-145.51579 61.978947c-10.778947 5.389474-21.557895 0-24.252631-10.778947-5.389474-10.778947 0-21.557895 10.778947-24.252632l140.126316-59.28421 110.48421-237.136843-175.157895 75.452632-59.28421 156.294737c-2.694737 10.778947-13.473684 13.473684-24.252632 10.778947-10.778947-2.694737-13.473684-13.473684-10.778947-24.252631l56.589474-148.210527-188.631579-102.4v134.736842c0 10.778947-8.084211 18.863158-18.863158 18.863158s-18.863158-8.084211-18.863158-18.863158v-134.736842l-188.631579 102.4 56.589474 148.210527c2.694737 10.778947 0 21.557895-10.778948 24.252631-10.778947 2.694737-21.557895 0-24.252631-10.778947L269.473684 144.168421l-175.157895-75.452632 110.484211 237.136843 140.126316 59.28421c10.778947 5.389474 13.473684 16.168421 10.778947 24.252632-5.389474 10.778947-16.168421 13.473684-24.252631 10.778947l-145.51579-61.978947s-2.694737 0-2.694737-2.694737c0 0-2.694737 0-2.694737-2.694737l-2.694736-2.694737-2.694737-2.694737-134.736842-288.336842v-13.473684c0-2.694737 2.694737-2.694737 2.694736-5.389474 2.694737-2.694737 2.694737-2.694737 5.389474-2.694737s5.389474-2.694737 8.084211-2.694736c2.694737 0 5.389474 0 8.08421 2.694736l218.273684 94.31579 223.663158-118.568421c2.694737 0 5.389474-2.694737 8.084211-2.694737H522.778947l223.663158 118.568421 218.273684-94.315789c2.694737 0 5.389474-2.694737 8.084211-2.694737 2.694737 0 5.389474 0 8.084211 2.694737 2.694737 0 2.694737 2.694737 5.389473 2.694736 0 2.694737 2.694737 2.694737 2.694737 5.389474v8.084211z"  horiz-adv-x="1024" />
      
      <glyph glyph-name="jichuxinxiyingshe" unicode="&#58903;" d="M953.727 568.494a44 44 0 0 0-20.007-20.016L530.873 349.792a44 44 0 0 0-38.946 0.01L89.595 548.497c-21.788 10.76-30.728 37.146-19.968 58.934a44 44 0 0 0 19.979 19.974L491.83 825.91a44 44 0 0 0 38.917 0.013L933.702 627.41c21.799-10.739 30.765-37.116 20.025-58.915z m-62.087 19.44l-380.332 187.37-379.64-187.358 379.745-187.54L891.64 587.935zM954.991 364.35a44 44 0 0 0-19.43-18.887l-405.675-200.08a44 44 0 0 0-38.946 0.01L85.78 345.484c-21.788 10.76-30.728 37.147-19.968 58.935a44 44 0 0 0 18.847 19.394l180.465 95.648 226.735-109.27a44 44 0 0 1 38.339 0.066l225.18 109.466 181.294-95.905c21.48-11.363 29.682-37.988 18.32-59.468z m-60.868 20.888L754.345 459.18 553.807 361.69a98 98 0 0 0-84.58-0.531l-0.812 0.386-202.134 97.413-139.071-73.708 383.216-189.254 383.697 189.24zM952.431 162.586a44 44 0 0 0-20.511-21.075L531.838-55.812a44 44 0 0 0-38.946 0.01L93.317 141.532c-21.789 10.76-30.728 37.146-19.968 58.934a44 44 0 0 0 21.037 20.478l191.163 88.088 208.287-100.618a44 44 0 0 1 38.311 0.016L739.65 308.886l191.193-87.94c22.078-10.154 31.743-36.283 21.588-58.36z m-63.22 18.072L740.24 249.177l-184.563-89.35a98 98 0 0 0-84.52-0.423l-0.81 0.386-185.343 89.535-148.988-68.654 376.361-185.869 376.835 185.856z"  horiz-adv-x="1024" />
      
      <glyph glyph-name="cheliangguanli" unicode="&#59349;" d="M310.421 186.401v-74.28H204.407c-29.11 0-52.793 25.408-52.793 56.64v254.95l24.221 36.159v-2.55H817.78v1.385l31.656-47.259 39.879 26.713-91.305 136.306 74.95 0.044-0.023 40-101.71-0.059-37.919 56.608c-18.621 27.798-49.061 44.393-81.427 44.393h-310.93c-32.367 0-62.807-16.596-81.427-44.393l-38.084-56.855-89.569-0.053 0.023-40 62.741 0.037-90.514-135.127h-0.508v-0.759l-0.095-0.142 0.095-0.064V168.76c0-57.698 45.216-104.64 100.793-104.64H358.42V186.4c0 8.999 6.458 16.32 14.397 16.32h170.385v48H372.818c-34.406 0.002-62.397-28.852-62.397-64.319z m-11.017 457.943c9.692 14.469 25.224 23.107 41.547 23.107h310.93c16.323 0 31.855-8.638 41.548-23.106l93.125-139.024H206.279l93.125 139.023zM261.498 381.678h156.716v-48H261.498zM761.942 375.749c-88.556 0-160.601-72.045-160.601-160.601 0-88.555 72.045-160.6 160.601-160.6 88.555 0 160.6 72.045 160.6 160.6 0 88.556-72.045 160.601-160.6 160.601z m0-277.2c-64.294 0-116.601 52.307-116.601 116.6 0 64.294 52.307 116.601 116.601 116.601 64.293 0 116.6-52.307 116.6-116.601s-52.307-116.6-116.6-116.6zM834.379 265.882h-31.644c-1.857 0-3.572-0.857-4.643-2.357l-45.359-62.717-16.358 22.787c-1.071 1.5-2.786 2.357-4.643 2.357H700.16c-4.643 0-7.357-5.286-4.643-9.072l52.716-72.931a5.682 5.682 0 0 1 9.215 0l81.575 112.862c2.714 3.785-0.001 9.071-4.644 9.071z"  horiz-adv-x="1024" />
      
      <glyph glyph-name="taishidaping" unicode="&#58890;" d="M16.436002 27.810133A16.452267 16.452267 0 0 0 0.000802 44.424533V742.664533a16.426667 16.426667 0 0 0 24.1152 14.6688c1.245867-0.6144 29.073067-14.037333 101.4784-27.306666C248.568269 707.566933 403.627469 702.848 512.000802 702.848c379.2384 0 486.792533 53.9136 487.8336 54.459733a16.520533 16.520533 0 0 0 24.1664-14.6432v-698.24a16.520533 16.520533 0 0 0-8.132267-14.3616 16.3072 16.3072 0 0 0-16.3328-0.119466c-1.399467 0.725333-27.938133 14.045867-99.362133 27.178666C778.479735 79.505067 621.910135 84.224 512.000802 84.241067h-0.597333c-109.883733 0-266.0864-4.7104-387.566934-27.067734-71.4752-13.1584-97.9968-26.5216-99.362133-27.229866a16.213333 16.213333 0 0 0-8.0384-2.133334z m494.933333 89.463467h0.631467c296.430933 0 429.4912-31.7952 478.967467-48.4864V718.557867c-49.8944-16.5376-184.840533-48.7424-478.967467-48.7424S82.927735 702.020267 33.033335 718.557867v-649.7536c49.450667 16.708267 182.365867 48.469333 478.327467 48.469333zM337.826935 126.0544a16.520533 16.520533 0 0 0-16.520533 16.520533V340.608a16.520533 16.520533 0 0 0 33.032533 0v-198.033067a16.512 16.512 0 0 0-16.512-16.520533zM470.648269 126.0544a16.520533 16.520533 0 0 0-16.520534 16.520533V340.608a16.520533 16.520533 0 0 0 33.032534 0v-198.033067a16.520533 16.520533 0 0 0-16.512-16.520533zM603.461069 126.0544a16.512 16.512 0 0 0-16.512 16.520533V340.608a16.520533 16.520533 0 0 0 33.032533 0v-198.033067a16.520533 16.520533 0 0 0-16.520533-16.520533zM736.282402 126.0544a16.520533 16.520533 0 0 0-16.520533 16.520533V340.608a16.520533 16.520533 0 0 0 33.032533 0v-198.033067a16.512 16.512 0 0 0-16.512-16.520533zM693.931469-25.386667H330.070135a16.520533 16.520533 0 0 0 0 33.032534h363.861334a16.520533 16.520533 0 0 0 0-33.032534zM805.675469 618.555733l-31.889067-11.093333a16.392533 16.392533 0 0 1-10.436267-3.6352L666.454135 570.026667l50.8416-9.489067L585.225335 436.053333l-174.08 111.872a16.520533 16.520533 0 0 1-20.590933-2.2016L259.414135 414.933333a16.512 16.512 0 1 1 23.3216-23.389866L404.480802 512.989867l173.7472-111.658667a16.512 16.512 0 0 1 20.258133 1.8688l141.8752 133.6576 8.9088-43.52z"  horiz-adv-x="1024" />
      
      <glyph glyph-name="table" unicode="&#58981;" d="M913.988 722.32H110.05c-25.671 0-46.676-21.007-46.676-46.679v-665.897c0-25.651 20.987-46.638 46.637-46.638H913.95c25.671 0 46.676 21.004 46.676 46.676V675.68c0 25.651-20.988 46.64-46.638 46.64zM339.796-0.142c0-12.016-9.34-21.353-21.305-21.353H104.864c-11.965 0-21.303 9.337-21.303 21.353V127.977c0 12.014 9.338 21.353 21.303 21.353h213.627c11.965 0 21.305-9.34 21.305-21.353v-128.118z m0 224.995c0-12.015-9.34-21.353-21.305-21.353H104.864c-11.965 0-21.303 9.338-21.303 21.353V352.971c0 12.013 9.338 21.354 21.303 21.354h213.627c11.965 0 21.305-9.34 21.305-21.354v-128.117z m0 223.432c0-12.016-9.34-21.353-21.305-21.353H104.864c-11.965 0-21.303 9.337-21.303 21.353V576.404c0 12.013 9.338 21.353 21.303 21.353h213.627c11.965 0 21.305-9.34 21.305-21.353v-128.118zM639.269-0.14c0-12.016-9.34-21.353-21.306-21.353H404.337c-11.966 0-21.305 9.337-21.305 21.353V127.977c0 12.014 9.34 21.353 21.305 21.353h213.626c11.966 0 21.306-9.34 21.306-21.353v-128.118z m0 224.995c0-12.015-9.34-21.353-21.306-21.353H404.337c-11.966 0-21.305 9.338-21.305 21.353V352.971c0 12.013 9.34 21.354 21.305 21.354h213.626c11.966 0 21.306-9.34 21.306-21.354v-128.117z m0 223.432c0-12.016-9.34-21.353-21.306-21.353H404.337c-11.966 0-21.305 9.337-21.305 21.353V576.404c0 12.013 9.34 21.353 21.305 21.353h213.626c11.966 0 21.306-9.34 21.306-21.353v-128.118zM941.864-0.14c0-12.016-9.34-21.353-21.304-21.353H706.933c-11.966 0-21.304 9.337-21.304 21.353V127.977c0 12.014 9.338 21.353 21.304 21.353h213.626c11.966 0 21.304-9.34 21.304-21.353v-128.118z m0 224.995c0-12.015-9.34-21.353-21.304-21.353H706.933c-11.966 0-21.304 9.338-21.304 21.353V352.971c0 12.013 9.338 21.354 21.304 21.354h213.626c11.966 0 21.304-9.34 21.304-21.354v-128.117z m0 223.432c0-12.016-9.34-21.353-21.304-21.353H706.933c-11.966 0-21.304 9.337-21.304 21.353V576.404c0 12.013 9.338 21.353 21.304 21.353h213.626c11.966 0 21.304-9.34 21.304-21.353v-128.118z"  horiz-adv-x="1024" />
      
      <glyph glyph-name="anniu" unicode="&#59024;" d="M368 377.6c-3.2 6.4-6.4 9.6-12.8 16-3.2 3.2-9.6 6.4-12.8 9.6 3.2 3.2 6.4 3.2 6.4 6.4 3.2 3.2 3.2 6.4 6.4 9.6 0 3.2 3.2 6.4 3.2 12.8v12.8c0 9.6-3.2 19.2-6.4 28.8s-9.6 16-12.8 22.4c-6.4 6.4-12.8 9.6-19.2 12.8-6.4 3.2-16 3.2-22.4 3.2h-73.6v-252.8h80c9.6 0 19.2 3.2 28.8 6.4 9.6 3.2 16 9.6 22.4 16 6.4 6.4 12.8 16 16 25.6 3.2 9.6 6.4 19.2 6.4 32 0 6.4 0 16-3.2 22.4s-3.2 12.8-6.4 16zM272 467.2h16c6.4 0 12.8-3.2 16-6.4 6.4-3.2 6.4-9.6 6.4-19.2s-3.2-16-6.4-19.2c-3.2-6.4-9.6-6.4-16-6.4h-16v51.2zM326.4 323.2c-3.2-3.2-3.2-6.4-6.4-9.6s-6.4-3.2-9.6-6.4c-3.2 0-6.4-3.2-12.8-3.2h-25.6v64h25.6c9.6 0 16-3.2 22.4-9.6s9.6-12.8 9.6-25.6c0 0-3.2-6.4-3.2-9.6zM748.8 416v-48c-6.4 6.4-9.6 16-16 25.6s-12.8 16-19.2 22.4l-73.6 96h-41.6v-252.8h51.2v160l19.2-28.8c6.4-9.6 12.8-19.2 22.4-28.8l83.2-108.8h25.6v256h-51.2v-92.8zM896 672h-768c-35.2 0-64-28.8-64-64v-448c0-35.2 28.8-64 64-64h768c35.2 0 64 28.8 64 64v448c0 35.2-28.8 64-64 64zM896 192c0-19.2-12.8-32-32-32h-704c-19.2 0-32 12.8-32 32v384c0 19.2 12.8 32 32 32h704c19.2 0 32-12.8 32-32v-384zM393.6 464h64v-204.8h54.4v204.8h64v48h-182.4z"  horiz-adv-x="1024" />
      
      <glyph glyph-name="anniuzu" unicode="&#59266;" d="M800 640h-64a32 32 0 0 1-31.84 32H159.84C142.4 672 128 657.568 128 639.7760000000001v-415.552A32 32 0 0 1 159.84 192H160v-64H128c-35.328 0-64 28.48-64 63.904V672.096C64 707.392 92.864 736 128 736h608c35.328 0 64-28.48 64-63.904V640zM192 544.1600000000001A64 64 0 0 0 256.16 608h639.68A64 64 0 0 0 960 544.1600000000001v-448.32A64 64 0 0 0 895.84 32H256.16A64 64 0 0 0 192 95.84000000000003v448.32z m64-32.384v-383.552A31.968 31.968 0 0 1 287.744 96h576.512c17.184 0 31.744 14.4 31.744 32.224V511.776A31.968 31.968 0 0 1 864.256 544H287.744C270.56 544 256 529.6 256 511.776z m219.232-238.4c0-12.16-1.92-23.168-5.76-32.96-3.808-9.792-9.12-18.048-15.872-24.8-6.752-6.72-14.592-11.904-23.52-15.488a76.064 76.064 0 0 0-28.576-5.344H320V448h72.384c8.576 0 16.64-1.6 24.192-4.768 7.552-3.2 14.24-7.616 20.128-13.28 5.856-5.696 10.464-12.704 13.856-21.056a73.824 73.824 0 0 0 3.872-39.872c-0.768-4.256-1.92-8.288-3.36-12.128-1.472-3.84-3.328-7.328-5.6-10.496a27.776 27.776 0 0 0-7.776-7.552c4.512-1.6 9.024-4.48 13.536-8.736 4.48-4.224 8.576-9.28 12.16-15.072a80.736 80.736 0 0 0 11.84-41.664z m-50.72 0c0 11.104-3.264 19.36-9.824 24.8a33.568 33.568 0 0 1-21.984 8.128h-25.024v-65.472h25.024c4.064 0 8 0.64 11.84 1.984a29.184 29.184 0 0 1 10.144 5.952 29.28 29.28 0 0 1 7.104 10.112c1.824 4.096 2.72 8.928 2.72 14.496z m-16.576 103.584c0 9.28-2.432 15.872-7.264 19.84a25.216 25.216 0 0 1-16.416 5.952h-16.576v-51.2h16.576c6.08 0 11.552 1.92 16.416 5.76 4.832 3.84 7.264 10.368 7.264 19.648z m166.528 21.824v-204h-52.064v204.384h-65.28V448h182.304v-49.216h-64.96zM792.16 192l-78.336 143.424v-140.64H661.44V448h42.272l75.904-128v128H832v-256h-39.84z"  horiz-adv-x="1024" />
      
      <glyph glyph-name="shiyongbangzhu" unicode="&#59341;" d="M879.978667 775.872 490.453333 775.872l-232.661333 108.586667c-12.8 5.952-26.304 9.002667-40.170667 9.002667-52.330667 0-94.954667-42.645333-94.954667-95.061333l0-24.256C53.376 763.754667 0 704.021333 0 631.872L0 18.56c0-79.445333 64.618667-144.021333 144.021333-144.021333L512-125.461333l367.978667 0c79.445333 0 144.021333 64.576 144.021333 144.021333L1024 631.872C1024 711.296 959.424 775.893333 879.978667 775.872zM165.397333 798.4c0 32.32 27.136 52.330667 52.224 52.330667 7.573333 0 14.997333-1.685333 22.101333-4.992l250.922667-117.098667 0-774.677333L195.541333 91.648C177.237333 100.266667 165.397333 118.826667 165.397333 139.050667L165.397333 798.4zM42.730667 18.56 42.730667 631.893333c0 48.533333 34.325333 89.088 79.936 98.922667l0-591.786667c0-36.714667 21.482667-70.506667 54.784-86.08l290.816-135.658667L144.021333-82.709333C88.149333-82.709333 42.730667-37.269333 42.730667 18.56zM981.269333 18.56c0-55.850667-45.44-101.290667-101.290667-101.290667L532.970667-82.730667c0.149333 1.066667 0.405333 2.112 0.405333 3.178667L533.376 733.162667l346.602667 0c55.850667 0 101.290667-45.44 101.290667-101.290667L981.269333 18.56z"  horiz-adv-x="1024" />
      
      <glyph glyph-name="wujiedu" unicode="&#58957;" d="M772.260535-5.910361l-70.194712 0 0 17.548678 70.194712 0c14.513552 0 26.322505 11.80793 26.322505 26.323529l0 5.569856 17.548678 0 0-5.569856C816.132742 13.768841 796.451494-5.910361 772.260535-5.910361zM678.667927-5.910361l-70.194712 0 0 17.548678 70.194712 0L678.667927-5.910361zM585.075319-5.910361 514.880607-5.910361l0 17.548678 70.194712 0L585.075319-5.910361zM491.482711-5.910361l-70.194712 0 0 17.548678 70.194712 0L491.482711-5.910361zM397.889079-5.910361l-70.194712 0 0 17.548678 70.194712 0L397.889079-5.910361zM304.296471-5.910361l-57.724703 0c-5.242398 0-10.382465 0.928139-15.277962 2.755764l6.14393 16.440437c2.923586-1.093914 5.996574-1.647523 9.134031-1.647523l57.724703 0L304.296471-5.910361zM209.17095 15.085836c-4.233418 6.888897-6.470365 14.798031-6.470365 22.87601l0 50.949392 17.548678 0 0-50.949392c0-4.833075 1.339508-9.562796 3.871167-13.684674L209.17095 15.085836zM816.132742 66.928574l-17.548678 0L798.584064 137.123286l17.548678 0L816.132742 66.928574zM220.249263 112.308111 202.700585 112.308111l0 70.194712 17.548678 0L220.249263 112.308111zM816.132742 160.522206l-17.548678 0 0 70.194712 17.548678 0L816.132742 160.522206zM220.249263 205.901743 202.700585 205.901743l0 70.194712 17.548678 0L220.249263 205.901743zM816.132742 254.114814l-17.548678 0 0 70.194712 17.548678 0L816.132742 254.114814zM220.249263 299.494351 202.700585 299.494351l0 70.194712 17.548678 0L220.249263 299.494351zM816.132742 347.707422l-17.548678 0 0 70.193689 17.548678 0L816.132742 347.707422zM220.249263 393.086959 202.700585 393.086959 202.700585 463.281671l17.548678 0L220.249263 393.086959zM816.132742 441.299007l-17.548678 0 0 70.195735 17.548678 0L816.132742 441.299007zM220.249263 486.680591 202.700585 486.680591l0 70.194712 17.548678 0L220.249263 486.680591zM816.132742 534.893662l-17.548678 0 0 70.194712 17.548678 0L816.132742 534.893662zM220.249263 580.273199 202.700585 580.273199l0 70.194712 17.548678 0L220.249263 580.273199zM816.132742 628.48627l-17.548678 0 0 70.194712 17.548678 0L816.132742 628.48627zM220.249263 673.865807 202.700585 673.865807l0 68.818365c0 0.581238 0.011256 1.158383 0.033769 1.732457l17.534352-0.711198c-0.014326-0.339738-0.020466-0.679475-0.020466-1.02126L220.24824 673.865807zM816.132742 722.078879l-17.548678 0 0 20.605294c0 12.8077-9.544377 23.984251-22.199605 25.997094l2.758834 17.331737c21.087271-3.357468 36.989449-21.98471 36.989449-43.328831L816.132742 722.078879zM226.567155 759.727337l-13.341866 11.401678c8.378831 9.80225 20.531616 15.425318 33.345456 15.426341l39.854707 0 0-17.548678-39.85266 0C238.896972 769.005654 231.604892 765.623627 226.567155 759.727337zM754.390539 769.006677l-70.195735 0L684.194804 786.555355l70.195735 0L754.390539 769.006677zM660.796908 769.006677l-70.194712 0L590.602196 786.555355l70.194712 0L660.796908 769.006677zM567.203276 769.006677l-70.194712 0L497.008564 786.555355l70.194712 0L567.203276 769.006677zM473.610668 769.006677l-70.194712 0L403.415956 786.555355l70.194712 0L473.610668 769.006677zM380.01806 769.006677l-70.194712 0L309.823348 786.555355l70.194712 0L380.01806 769.006677zM206.748784 50.797176c-10.345626 0-20.423145 3.707438-28.379351 10.4367l11.333116 13.396101c3.740184-3.162016 8.248871-5.215792 12.997012-5.966898l0 31.975249 17.548678 0 0-48.399313-7.583722-1.039679C210.707956 50.934299 208.716602 50.797176 206.748784 50.797176zM163.725922 85.988676l-0.181125 0.959861-12.125155 68.312852 17.277502 3.067872 12.245905-68.952418L163.725922 85.988676zM220.249263 124.036223 202.700585 124.036223l0 70.194712 17.548678 0L220.249263 124.036223zM147.33051 178.299081l-12.266371 69.115124 17.278525 3.067872 12.264325-69.115124L147.33051 178.299081zM220.249263 217.628832 202.700585 217.628832l0 70.194712 17.548678 0L220.249263 217.628832zM130.97603 270.451898l-12.267395 69.115124 17.277502 3.067872 12.267395-69.115124L130.97603 270.451898zM220.249263 311.222463 202.700585 311.222463 202.700585 381.417175l17.548678 0L220.249263 311.222463zM114.619504 362.605737l-12.267395 69.115124 17.277502 3.067872 12.267395-69.115124L114.619504 362.605737zM220.249263 404.815071 202.700585 404.815071l0 70.194712 17.548678 0L220.249263 404.815071zM98.264001 454.75753l-12.266371 69.115124 17.277502 3.067872 12.266371-69.115124L98.264001 454.75753zM220.249263 498.40768 202.700585 498.40768l0 70.194712 17.548678 0L220.249263 498.40768zM81.908498 546.91137l-12.267395 69.115124 17.277502 3.067872 12.267395-69.115124L81.908498 546.91137zM220.249263 592.001311 202.700585 592.001311l0 70.194712 17.548678 0L220.249263 592.001311zM65.525366 639.467369c-0.245593 1.876744-0.369414 3.783163-0.369414 5.665023 0 21.318538 15.226796 39.494503 36.205597 43.216267l16.427134 2.916423 3.064802-17.278525-16.426111-2.914376c-12.58769-2.234901-21.722744-13.143345-21.722744-25.938766 0-1.125637 0.074701-2.266623 0.221034-3.39226L65.525366 639.467369zM143.893224 678.076712l-3.067872 17.277502 79.422887 14.09502 0-23.855314L202.700585 685.593919l0 2.919493L143.893224 678.076712zM817.922505 50.757267c-2.552126 0-5.121648 0.226151-7.638981 0.671289l-11.69946 2.079358 0 13.986549 9.952676 0 0.357134 2.004657 4.452405-0.791016c1.50426-0.268106 3.046383-0.403183 4.575202-0.403183 12.795421 0 23.704888 9.134031 25.941835 21.721721l0.686638 3.867074 17.277502-3.067872-0.686638-3.867074C857.417007 65.983039 839.240019 50.757267 817.922505 50.757267zM816.132742 90.892359l-17.548678 0 0 70.194712 17.548678 0L816.132742 90.892359zM865.916589 113.865583l-17.277502 3.067872 12.266371 69.115124 17.277502-3.067872L865.916589 113.865583zM816.132742 184.48599l-17.548678 0L798.584064 254.680702l17.548678 0L816.132742 184.48599zM882.271068 206.0184l-17.277502 3.067872 12.267395 69.115124 17.277502-3.067872L882.271068 206.0184zM816.132742 278.078599l-17.548678 0 0 70.194712 17.548678 0L816.132742 278.078599zM898.627594 298.172239l-17.277502 3.067872 12.266371 69.112054 17.277502-3.067872L898.627594 298.172239zM816.132742 371.671207l-17.548678 0 0 70.193689 17.548678 0L816.132742 371.671207zM914.982074 390.323009l-17.277502 3.067872 12.267395 69.115124 17.277502-3.067872L914.982074 390.323009zM816.132742 465.262792l-17.548678 0 0 70.194712 17.548678 0L816.132742 465.262792zM931.3386 482.475825l-17.277502 3.067872 12.266371 69.115124 17.277502-3.067872L931.3386 482.475825zM816.132742 558.8554l-17.548678 0 0 70.194712 17.548678 0L816.132742 558.8554zM947.69308 574.629665l-17.277502 3.067872 11.156084 62.856583c0.268106 1.51347 0.404206 3.053546 0.404206 4.578272l17.548678 0.211824c0-2.76088-0.227174-5.334495-0.675382-7.855922L947.69308 574.629665zM816.132742 652.449032l-17.548678 0 0 58.038858 32.584116-5.782703-3.067872-17.277502-11.967566 2.12336L816.132742 652.449032zM936.208515 661.529851c-4.003174 5.036713-9.668197 8.42488-15.95539 9.541307L851.139024 683.337529l3.067872 17.277502 69.115124-12.266371c10.502192-1.863441 19.957541-7.510044 26.625404-15.899108L936.208515 661.529851zM382.925273 447.851237c-25.067932 0-45.462424 20.394493-45.462424 45.462424 0 25.067932 20.394493 45.462424 45.462424 45.462424 25.067932 0 45.462424-20.394493 45.462424-45.462424C428.387697 468.245729 407.993205 447.851237 382.925273 447.851237zM382.925273 521.227408c-15.392572 0-27.913746-12.522198-27.913746-27.913746s12.522198-27.913746 27.913746-27.913746 27.913746 12.522198 27.913746 27.913746S398.317845 521.227408 382.925273 521.227408zM635.907031 447.851237c-25.067932 0-45.462424 20.394493-45.462424 45.462424 0 25.067932 20.394493 45.462424 45.462424 45.462424s45.462424-20.394493 45.462424-45.462424C681.370479 468.245729 660.974963 447.851237 635.907031 447.851237zM635.907031 521.227408c-15.392572 0-27.913746-12.522198-27.913746-27.913746s12.522198-27.913746 27.913746-27.913746c15.392572 0 27.913746 12.522198 27.913746 27.913746S651.299603 521.227408 635.907031 521.227408zM583.795163 250.453425c-12.856819 29.68509-42.053792 48.863894-74.379011 48.863894-32.327266 0-61.522192-19.179828-74.377988-48.863894l-16.10377 6.974855c15.639189 36.108383 51.155077 59.437717 90.480734 59.437717 39.325657 0 74.841545-23.329335 90.482781-59.437717L583.795163 250.453425z"  horiz-adv-x="1024" />
      
      <glyph glyph-name="xitong" unicode="&#58952;" d="M91.83 234.14c1.87-34.09 30.28-60.65 64.43-60.22h331.23v-91.74H360.74c-13.34 0-24.16-10.82-24.16-24.16s10.82-24.16 24.16-24.16h302.53c13.34 0 24.16 10.82 24.16 24.16s-10.82 24.16-24.16 24.16H536.51v91.74h331.24c34.14-0.43 62.55 26.13 64.43 60.22v55.32H91.83v-55.32zM867.74 734.14H156.26c-34.93 0.39-63.66-27.41-64.43-62.33v-328.43h840.34V671.81c-0.77 34.93-29.5 62.72-64.43 62.33z"  horiz-adv-x="1024" />
      
      <glyph glyph-name="community_fill_light" unicode="&#59353;" d="M725.333333 192c46.933333 0 85.333333 38.4 85.333334 85.333333V682.666667c0 46.933333-38.4 85.333333-85.333334 85.333333H170.666667c-46.933333 0-85.333333-38.4-85.333334-85.333333v-407.466667c0-46.933333 38.4-85.333333 85.333334-85.333333h23.466666V21.333333c0-8.533333 6.4-17.066667 14.933334-19.2 2.133333 0 4.266667-2.133333 6.4-2.133333 6.4 0 12.8 2.133333 17.066666 8.533333L384 192h341.333333zM874.666667 640c-12.8 0-21.333333-8.533333-21.333334-21.333333s10.666667-21.333333 21.333334-21.333334c23.466667 0 42.666667-19.2 42.666666-42.666666v-347.733334c0-25.6-21.333333-36.266667-42.666666-36.266666h-32c-2.133333 0-6.4 0-8.533334-2.133334H832c-12.8 0-21.333333-8.533333-21.333333-21.333333v-76.8l-78.933334 72.533333c-4.266667 4.266667-8.533333 6.4-14.933333 6.4H554.666667c-12.8 0-21.333333-8.533333-21.333334-21.333333s8.533333-21.333333 21.333334-21.333333h155.733333l108.8-100.266667c4.266667-4.266667 8.533333-6.4 14.933333-6.4 2.133333 0 6.4 0 8.533334 2.133333 8.533333 4.266667 12.8 10.666667 12.8 19.2v104.533334h21.333333c49.066667 0 85.333333 32 85.333333 78.933333V554.666667c-2.133333 46.933333-40.533333 85.333333-87.466666 85.333333z"  horiz-adv-x="1024" />
      
      <glyph glyph-name="broadcast_fill" unicode="&#59421;" d="M704 521.6V697.6C704 768 675.2 768 643.2 768c-9.6 0-112-83.2-144-112l-112-89.6H179.2c-64 0-115.2-51.2-115.2-112v-144c0-60.8 51.2-112 115.2-112h19.2v-176c0-32 25.6-57.6 57.6-57.6s57.6 25.6 57.6 57.6v176h73.6l112-92.8c41.6-38.4 134.4-108.8 144-108.8 28.8 0 60.8 0 60.8 70.4v195.2c38.4 28.8 64 73.6 64 128 0 54.4-25.6 99.2-64 131.2zM819.2 633.6c-12.8 9.6-35.2 9.6-44.8-6.4-9.6-12.8-9.6-35.2 6.4-44.8 76.8-60.8 115.2-124.8 115.2-198.4 0-73.6-38.4-140.8-115.2-198.4-12.8-9.6-16-32-6.4-44.8 6.4-9.6 16-12.8 25.6-12.8 6.4 0 12.8 3.2 19.2 6.4 92.8 70.4 140.8 156.8 140.8 249.6 0 92.8-48 179.2-140.8 249.6z"  horiz-adv-x="1024" />
      
      <glyph glyph-name="peizhi" unicode="&#59096;" d="M798.72 78.848c-57.344 10.24-102.4 59.392-102.4 120.832 0 67.584 55.296 122.88 122.88 122.88s122.88-55.296 122.88-122.88c0-61.44-45.056-110.592-102.4-120.832v-114.688c0-12.288-8.192-20.48-20.48-20.48s-20.48 8.192-20.48 20.48v114.688z m-614.4 0c-57.344 10.24-102.4 59.392-102.4 120.832 0 67.584 55.296 122.88 122.88 122.88s122.88-55.296 122.88-122.88c0-61.44-45.056-110.592-102.4-120.832v-114.688c0-12.288-8.192-20.48-20.48-20.48s-20.48 8.192-20.48 20.48v114.688z m307.2 610.304c-57.344-10.24-102.4-59.392-102.4-120.832 0-67.584 55.296-122.88 122.88-122.88s122.88 55.296 122.88 122.88c0 61.44-45.056 110.592-102.4 120.832v114.688c0 12.288-8.192 20.48-20.48 20.48s-20.48-8.192-20.48-20.48v-114.688z m-307.2 114.688c0 12.288 8.192 20.48 20.48 20.48s20.48-8.192 20.48-20.48v-409.6c0-12.288-8.192-20.48-20.48-20.48s-20.48 8.192-20.48 20.48v409.6z m614.4 0c0 12.288 8.192 20.48 20.48 20.48s20.48-8.192 20.48-20.48v-409.6c0-12.288-8.192-20.48-20.48-20.48s-20.48 8.192-20.48 20.48v409.6z m-286.72-317.44c-45.056 0-81.92 36.864-81.92 81.92s36.864 81.92 81.92 81.92 81.92-36.864 81.92-81.92-36.864-81.92-81.92-81.92z m-20.48-112.64c0 12.288 8.192 20.48 20.48 20.48s20.48-8.192 20.48-20.48v-409.6c0-12.288-8.192-20.48-20.48-20.48s-20.48 8.192-20.48 20.48v409.6z m-286.72-256c45.056 0 81.92 36.864 81.92 81.92s-36.864 81.92-81.92 81.92-81.92-36.864-81.92-81.92 36.864-81.92 81.92-81.92z m614.4 0c45.056 0 81.92 36.864 81.92 81.92s-36.864 81.92-81.92 81.92-81.92-36.864-81.92-81.92 36.864-81.92 81.92-81.92z"  horiz-adv-x="1024" />
      
      <glyph glyph-name="sousuo" unicode="&#59218;" d="M953.474215-12.234504l-152.576516 163.241391c61.92508 74.48211 95.81186 167.36973 95.81186 265.073744 0 229.294809-186.63531 415.930119-416.102133 415.930119-229.294809 0-415.930119-186.63531-415.930119-415.930119s186.63531-415.930119 415.930119-415.930119c60.032925 0 118.00168 12.55703 172.186125 37.327062 16.169326 7.396607 23.221905 26.318159 15.825298 42.315471-7.396607 16.169326-26.318159 23.221905-42.315471 15.825298-45.927768-20.813707-94.951789-31.478582-145.695952-31.478582-194.031917 0-351.94087 157.908953-351.94087 351.94087 0 194.031917 157.908953 351.94087 351.94087 351.94087 194.031917 0 351.94087-157.908953 351.94087-351.94087 0-91.339493-34.918864-177.86259-98.048043-243.743995-12.213002-12.729044-11.868974-33.026709 0.860071-45.239711 1.032085-0.860071 2.236183-1.204099 3.268268-2.064169 0.860071-1.204099 1.376113-2.752226 2.408198-3.956325l165.477574-177.00252c6.192508-6.70855 14.793214-10.148833 23.393919-10.148833 7.912649 0 15.653284 2.92424 21.845792 8.600706C964.827146-45.433227 965.515202-25.135562 953.474215-12.234504z"  horiz-adv-x="1024" />
      
      <glyph glyph-name="refresh" unicode="&#58889;" d="M591.74798377 58.90675405000002c-108.16330683-21.99193588-224.73689529 8.4375-307.56048377 91.23387095-123.35080682 123.37802436-131.78830682 315.99798377-25.33971753 447.81350812v-62.51915342c0-18.58971753 15.21471753-33.80443588 33.80443506-33.80443506 18.58971753 0 33.77721753 15.21471753 33.77721835 33.80443506V670.62550405c0 10.125-3.375 18.58971753-10.125 23.65221753a33.3689513 33.3689513 0 0 1-23.67943588 10.125H157.48891152c-18.58971753 0-33.80443588-15.1875-33.80443588-33.77721753s15.21471753-33.80443588 33.80443589-33.80443588h47.30443506C78.04032223 479.6658263 89.85282223 249.83921347 235.19556412 102.80897158000005c101.38608848-101.35887095 241.63911282-136.85080683 371.76713718-109.82358846 5.0625 1.6875 11.8125 5.0625 15.21471835 8.4375a32.6612906 32.6612906 0 0 1 0 47.35887093c-6.77721753 10.125-20.30443588 13.5-30.42943588 10.125z m297.40826623 82.79637095h-45.61693588c123.35080682 158.84274188 113.22580683 388.66935471-33.80443507 535.67237905C715.09879059 772.01159253 586.68548377 809.19102841 463.3074594 792.28881087c-8.4375 0-15.1875-3.375-21.96471752-10.15221834a32.6612906 32.6612906 0 0 1 0-47.30443506c8.4375-8.4375 20.27721753-11.83971753 32.11693589-8.4375 101.38608848 15.1875 209.54939529-16.90221753 287.2832654-94.6360893 123.35080682-123.37802436 131.78830682-315.99798377 25.3125-447.8135073v62.5191526c0 18.58971753-15.1875 33.80443588-33.75 33.80443588-18.61693588 0-33.83165342-15.21471753-33.83165258-33.80443588v-135.19052435c0-10.125 3.40221753-18.58971753 10.15221753-23.65221753 6.75-6.75 15.21471753-10.125 23.67943505-10.125h135.16330683c18.58971753 0 33.80443588 15.1875 33.80443588 33.77721753s-13.52721753 30.42943588-32.11693588 30.42943588z"  horiz-adv-x="1024" />
      
      <glyph glyph-name="guanbi" unicode="&#59063;" d="M545 320c17.7 0 32 14.3 32 32l0 512c0 17.7-14.3 32-32 32s-32-14.3-32-32l0-512C513 334.4 527.3 320 545 320zM937.4 627.2c-27.3 38.9-60.1 73.6-97.6 102.9-37.8 29.6-79.7 53.3-124.3 70.4-16.5 6.3-35-1.9-41.3-18.5-6.3-16.5 2-35 18.5-41.3 160-61.2 267.4-217.4 267.4-388.7 0-229.4-186.6-416-416-416-229.4 0-416 186.6-416 416 0 171.3 107.5 327.5 267.4 388.7 16.5 6.3 24.8 24.8 18.5 41.3-6.3 16.5-24.8 24.8-41.3 18.5-44.7-17.1-86.5-40.8-124.3-70.4-37.5-29.3-70.3-64-97.6-102.9C94 546.3 64 451.1 64 352c0-64.8 12.7-127.6 37.7-186.8 24.2-57.2 58.8-108.5 102.9-152.6 44.1-44.1 95.4-78.7 152.6-102.9 59.2-25 122.1-37.7 186.8-37.7 64.8 0 127.7 12.7 186.8 37.7 57.2 24.2 108.5 58.8 152.6 102.9 44.1 44.1 78.7 95.4 102.9 152.6 25 59.2 37.7 122.1 37.7 186.8C1024 451.1 994 546.3 937.4 627.2z"  horiz-adv-x="1024" />
      
      <glyph glyph-name="home_fill_light" unicode="&#59352;" d="M951.466667 465.066667L565.333333 770.133333c-29.866667 23.466667-76.8 23.466667-106.666666 0L72.533333 465.066667c-6.4-6.4-10.666667-14.933333-6.4-23.466667s10.666667-14.933333 19.2-14.933333h44.8v-375.466667c0-42.666667 32-72.533333 74.666667-72.533333h224c12.8 0 21.333333 8.533333 21.333333 21.333333v153.6c0 32 27.733333 59.733333 61.866667 59.733333h4.266667c34.133333 0 61.866667-27.733333 61.866666-59.733333V0c0-12.8 8.533333-21.333333 21.333334-21.333333h226.133333c42.666667 0 70.4 29.866667 70.4 72.533333V426.666667h42.666667c8.533333 0 17.066667 6.4 19.2 14.933333s2.133333 17.066667-6.4 23.466667z"  horiz-adv-x="1024" />
      
      <glyph glyph-name="qingkong" unicode="&#59718;" d="M274.56 97.002667l19.434667 25.130666-33.792-68.565333a18.133333 18.133333 0 0 1 11.562666-25.536l59.733334-16a18.133333 18.133333 0 0 1 17.28 4.48c20.522667 19.818667 35.626667 35.989333 45.290666 48.469333l19.456 25.130667-33.813333-68.565333a18.133333 18.133333 0 0 1 11.562667-25.536l84.48-22.634667a18.133333 18.133333 0 0 1 17.28 4.48c20.522667 19.84 35.626667 35.989333 45.269333 48.469333l19.456 25.130667-33.813333-68.565333A18.133333 18.133333 0 0 1 535.530667-42.666667l72.106666-19.328a18.133333 18.133333 0 0 1 17.28 4.48c20.522667 19.84 35.626667 36.010667 45.269334 48.490667l19.456 25.130667-33.813334-68.586667a18.133333 18.133333 0 0 1 11.584-25.514667l86.421334-23.338666 3.84 0.213333c13.269333 0.704 29.056 5.034667 43.84 12.8 29.781333 15.701333 48.170667 43.2 52.181333 78.250667 2.133333 18.517333 4.778667 38.549333 8.405333 63.530666 1.642667 11.221333 2.944 20.010667 6.229334 41.834667 11.050667 73.322667 14.634667 101.034667 17.130666 133.674667l0.938667 12.373333 2.837333 2.922667 12.330667 1.344a41.813333 41.813333 0 0 1 24.810667 11.221333c10.730667 10.24 14.805333 25.386667 11.093333 42.197333l-37.546667 171.584c-3.029333 13.696-11.264 27.946667-23.146666 39.829334-11.648 11.626667-25.92 20.138667-39.893334 23.893333L723.626667 564.693333l-2.261334 3.925334L774.250667 765.866667c8.32 31.061333-11.754667 63.744-44.970667 72.64l-79.509333 21.312c-33.194667 8.896-66.922667-9.365333-75.264-40.426667l-52.842667-197.269333-3.925333-2.261334-118.101334 31.637334c-13.994667 3.754667-30.634667 3.498667-46.506666-0.746667-16.256-4.352-30.506667-12.586667-39.957334-22.933333l-118.314666-129.792c-11.605333-12.714667-15.658667-27.84-11.52-42.090667 4.16-14.229333 15.850667-25.194667 32.896-30.528l13.610666-4.266667 2.133334-3.882666-3.626667-13.802667c-21.12-79.850667-52.885333-136.917333-85.717333-150.890667-47.530667-20.202667-72.938667-49.429333-78.421334-85.034666-5.034667-32.682667 9.28-67.114667 37.589334-91.541334l22.037333-8.341333 74.666667-20.010667a42.666667 42.666667 0 0 1 41.216 11.050667c15.274667 15.274667 26.88 28.032 34.837333 38.293333z m551.381333 396.565333c14.144-3.797333 29.952-19.2 32.768-32l34.56-157.781333a10.666667 10.666667 0 0 0-13.184-12.586667L240.64 462.506667a10.666667 10.666667 0 0 0-5.12 17.493333l108.8 119.36c8.832 9.685333 30.229333 15.146667 44.373333 11.349333l141.333334-37.866666a21.333333 21.333333 0 0 1 26.133333 15.082666l58.304 217.642667a21.333333 21.333333 0 0 0 26.133333 15.082667l77.056-20.650667a21.333333 21.333333 0 0 0 15.082667-26.133333l-58.325333-217.642667a21.333333 21.333333 0 0 1 15.082666-26.112l136.448-36.565333zM315.456 194.432c-33.664-45.141333-64.597333-79.082667-92.8-101.802667l-5.909333-4.778666-2.837334-0.597334-88.106666 24.106667-2.922667 3.2c-13.034667 14.165333-19.370667 31.04-16.981333 46.592 3.285333 21.333333 22.058667 39.338667 53.205333 52.586667 31.722667 13.482667 59.818667 47.104 82.922667 99.904 10.026667 22.954667 18.88 48.725333 26.389333 76.586666l3.882667 14.4 3.904 2.261334 566.165333-151.701334 2.346667-3.306666-0.789334-12.224c-1.984-30.592-30.336-229.397333-32.128-244.906667-2.346667-20.416-11.306667-34.986667-27.605333-44.394667a73.237333 73.237333 0 0 0-21.397333-8.106666l-5.013334-0.725334-60.373333 16.170667 11.242667 20.288c8.277333 14.976 22.656 43.84 43.093333 86.613333a21.12 21.12 0 0 1-9.962667 28.16l-3.136 1.493334a21.333333 21.333333 0 0 1-26.261333-6.485334c-33.642667-45.056-64.533333-78.912-92.672-101.546666l-5.909333-4.757334-2.837334-0.597333-52.544 14.08 11.114667 20.266667c3.562667 6.485333 7.04 13.013333 10.453333 19.626666 7.04 13.504 17.898667 35.797333 32.597334 66.816a21.290667 21.290667 0 0 1-9.984 28.309334l-3.029334 1.450666a21.333333 21.333333 0 0 1-26.368-6.442666c-33.6-45.013333-64.469333-78.826667-92.608-101.482667l-5.909333-4.757333-2.837333-0.597334-52.138667 13.973334 11.114667 20.266666c3.242667 5.888 6.72 12.416 10.453333 19.626667 6.997333 13.461333 17.962667 35.946667 32.896 67.434667a20.970667 20.970667 0 0 1-10.112 28.010666l-3.328 1.536a21.333333 21.333333 0 0 1-26.069333-6.613333c-33.642667-45.056-64.554667-78.976-92.778667-101.696l-5.909333-4.757333-2.837334-0.597334-32.64 8.746667 11.093334 20.245333c3.541333 6.506667 7.04 13.034667 10.453333 19.626667 6.976 13.482667 17.941333 35.968 32.874667 67.456a21.056 21.056 0 0 1-10.069334 28.074667l-3.242666 1.514666a21.333333 21.333333 0 0 1-26.154667-6.549333z"  horiz-adv-x="1024" />
      
      <glyph glyph-name="grid" unicode="&#60066;" d="M597.333333 256H384V469.333333h213.333333z m0-298.666667v256H384v-256z m42.666667 256v-256h202.666667a53.393333 53.393333 0 0 1 53.333333 53.333334v202.666666zM384 768v-256h213.333333V768z m-42.666667-298.666667H85.333333v-213.333333h256z m554.666667 0H640v-213.333333h256z m-554.666667 42.666667V768H138.666667a53.393333 53.393333 0 0 1-53.333334-53.333333v-202.666667z m0-298.666667H85.333333v-202.666666a53.393333 53.393333 0 0 1 53.333334-53.333334h202.666666z m298.666667 298.666667h256V714.666667a53.393333 53.393333 0 0 1-53.333333 53.333333H640z"  horiz-adv-x="1024" />
      
      <glyph glyph-name="tubiao_tijiao" unicode="&#58939;" d="M414.273133-128a19.76097 19.76097 0 0 0-19.741211 20.488101l8.762126 237.513979a19.749115 19.749115 0 0 0 4.202738 11.471084l503.439415 641.372015-822.359463-475.187017 249.409882-129.274208c9.688823-5.021748 13.47267-16.947289 8.450922-26.635125-5.023724-9.687835-16.946301-13.471682-26.635125-8.449934L38.362218 289.17461000000003a19.758006 19.758006 0 1 0-0.793324 34.650361l932.344942 538.738859a19.759982 19.759982 0 0 0 29.505118-19.454706l-109.172395-912.697585a19.758994 19.758994 0 0 0-28.848132-15.124522L609.347756 48.43102399999998l-181.518965-171.052626a19.754055 19.754055 0 0 0-13.555658-5.378398z m28.276109 250.126145l-6.748685-182.935685 156.731307 147.692555a19.76097 19.76097 0 0 0 22.780144 3.091294l239.112482-126.310359L950.834551 769.67087 442.549242 122.12614499999995z"  horiz-adv-x="1024" />
      
      <glyph glyph-name="xitongrizhi" unicode="&#58979;" d="M986.273684 144.168421L943.157895 303.157895 838.063158 666.947368c-5.389474 21.557895-29.642105 35.031579-51.2 29.642106l-210.189474-59.284211c-10.778947-2.694737-16.168421-13.473684-13.473684-24.252631 2.694737-10.778947 13.473684-16.168421 24.252632-13.473685l210.189473 59.284211c2.694737 0 5.389474 0 5.389474-2.694737l53.894737-188.631579-51.2-13.473684c-10.778947-2.694737-16.168421-13.473684-13.473684-24.252632 2.694737-8.084211 10.778947-13.473684 18.863157-13.473684h5.389474l51.2 13.473684 35.031579-118.568421-94.315789-26.947368c-10.778947-2.694737-16.168421-13.473684-13.473685-24.252632 2.694737-8.084211 10.778947-13.473684 18.863158-13.473684h5.389474l94.315789 26.947368 40.421053-140.126315v-2.694737s0-2.694737-2.694737-2.694737l-185.936842-53.894737V491.789474c0 24.252632-18.863158 40.421053-40.421052 40.421052h-218.273685c-10.778947 0-18.863158-8.084211-18.863158-18.863158s8.084211-18.863158 18.863158-18.863157h218.273685c2.694737 0 2.694737-2.694737 2.694736-2.694737v-541.642106c0-2.694737-2.694737-2.694737-2.694736-2.694736H218.273684v72.757894c0 35.031579-29.642105 64.673684-64.673684 64.673685H86.231579V491.789474c0 2.694737 2.694737 2.694737 2.694737 2.694737h48.505263c10.778947 0 18.863158 8.084211 18.863158 18.863157s-8.084211 18.863158-18.863158 18.863158H88.926316c-24.252632 0-40.421053-18.863158-40.421053-40.421052v-433.852632c0-2.694737 2.694737-2.694737 2.694737-2.694737v-2.694737l132.042105-137.431579c5.389474-5.389474 5.389474-5.389474 8.084211-5.389473 2.694737 0 5.389474-2.694737 8.08421-2.694737h522.778948c24.252632 0 40.421053 18.863158 40.421052 40.421053v88.926315l196.71579 56.589474c10.778947 2.694737 18.863158 10.778947 24.252631 18.863158s8.084211 21.557895 2.694737 32.336842zM180.547368 17.515789v-45.810526l-70.063157 72.757895h43.115789c13.473684 0 26.947368-10.778947 26.947368-26.947369zM80.842105 618.442105c5.389474-5.389474 13.473684-8.084211 21.557895-2.694737l29.642105 10.778948L215.578947 545.684211c5.389474-5.389474 5.389474-10.778947 5.389474-18.863158l-13.473684-43.11579c-5.389474-18.863158 0-40.421053 13.473684-56.589474l29.642105-29.642105c2.694737-2.694737 2.694737-2.694737 5.389474-2.694737 5.389474-5.389474 13.473684-8.084211 18.863158-8.08421 8.084211 0 13.473684 2.694737 18.863158 5.389474 2.694737 0 2.694737 2.694737 5.389473 2.694736l83.536843 83.536842 132.042105-132.042105c2.694737-2.694737 8.084211-5.389474 13.473684-5.389473s10.778947 2.694737 13.473684 5.389473c8.084211 8.084211 8.084211 18.863158 0 26.947369l-132.042105 132.042105 83.536842 83.536842c8.084211 8.084211 10.778947 16.168421 10.778947 26.947368s-2.694737 18.863158-10.778947 26.947369l-29.642105 29.642105c-13.473684 13.473684-35.031579 18.863158-56.589474 13.473684l-43.115789-13.473684c-5.389474-2.694737-13.473684 0-18.863158 5.389474l-80.842105 80.842105 13.473684 29.642105c2.694737 8.084211 2.694737 16.168421-2.694737 21.557895L245.221053 850.189474c-13.473684 13.473684-35.031579 13.473684-51.2 0h-2.694737L118.568421 777.431579 45.810526 704.673684c-8.084211-8.084211-10.778947-16.168421-10.778947-26.947368s2.694737-18.863158 10.778947-26.947369L80.842105 618.442105z m242.526316 37.726316c13.473684-13.473684 35.031579-18.863158 56.589474-13.473684l43.115789 10.778947c5.389474 2.694737 13.473684 0 18.863158-5.389473l29.642105-29.642106-97.010526-97.010526-97.010526-97.010526-29.642106 29.642105c-5.389474 8.084211-8.084211 13.473684-5.389473 21.557895l13.473684 43.115789c5.389474 18.863158 0 40.421053-13.473684 56.589474L148.210526 664.252632c-5.389474 5.389474-13.473684 5.389474-21.557894 2.694736L97.010526 653.473684l-24.252631 24.252632 72.757894 72.757895 72.757895 72.757894 24.252632-24.252631-13.473684-29.642106c-2.694737-8.084211-2.694737-16.168421 2.694736-21.557894L323.368421 656.168421zM633.263158 268.126316H207.494737c-10.778947 0-18.863158-8.084211-18.863158-18.863158s8.084211-18.863158 18.863158-18.863158h428.463158c10.778947 0 18.863158 8.084211 18.863158 18.863158s-10.778947 18.863158-21.557895 18.863158zM633.263158 122.610526H317.978947c-10.778947 0-18.863158-8.084211-18.863158-18.863158s8.084211-18.863158 18.863158-18.863157h315.284211c10.778947 0 18.863158 8.084211 18.863158 18.863157s-8.084211 18.863158-18.863158 18.863158z"  horiz-adv-x="1024" />
      
      <glyph glyph-name="zuzhizuhu" unicode="&#58959;" d="M537.6 195.968h64a64 64 0 0 0 64-64V0a64 64 0 0 0-64-64H422.4a64 64 0 0 0-64 64v132.032a64 64 0 0 0 64 64h64V363.968h-256a51.52 51.52 0 0 1-50.88-45.888l-0.32-6.08-0.064-115.968H243.2a64 64 0 0 0 64-64V0a64 64 0 0 0-64-64H64a64 64 0 0 0-64 64v132.032a64 64 0 0 0 64 64h64V312C128 369.408 173.824 416 230.4 416h563.2c56.576 0 102.4-46.592 102.4-104v-115.968h64a64 64 0 0 0 64-64V0a64 64 0 0 0-64-64h-179.2a64 64 0 0 0-64 64v132.032a64 64 0 0 0 64 64h63.936l0.064 115.968a51.584 51.584 0 0 1-51.2 52.032h-256v-168.064z m-313.6-51.968H83.2a32 32 0 0 1-31.488-26.24l-0.512-5.76v-92.032a32 32 0 0 1 26.24-31.424l5.76-0.512h140.8a32 32 0 0 1 31.488 26.24l0.512 5.76V112a32 32 0 0 1-32 32z m358.4 0H441.6a32 32 0 0 1-31.488-26.24l-0.512-5.76v-92.032a32 32 0 0 1 26.24-31.424l5.76-0.512h140.8a32 32 0 0 1 31.488 26.24l0.512 5.76V112a32 32 0 0 1-32 32z m358.4 0h-140.8a32 32 0 0 1-31.488-26.24l-0.512-5.76v-92.032a32 32 0 0 1 26.24-31.424l5.76-0.512h140.8a32 32 0 0 1 31.488 26.24l0.512 5.76V112a32 32 0 0 1-32 32zM652.8 832a64 64 0 0 0 64-64v-184a64 64 0 0 0-64-64H537.6V416h-51.2V520H371.2a64 64 0 0 0-64 64V768a64 64 0 0 0 64 64h281.6z m-19.2-52.032H390.4a32 32 0 0 1-31.488-26.24l-0.512-5.76v-144a32 32 0 0 1 26.24-31.424l5.76-0.512h243.2a32 32 0 0 1 31.488 26.24l0.512 5.76v144a32 32 0 0 1-32 32z"  horiz-adv-x="1024" />
      
      <glyph glyph-name="zhengque-correct" unicode="&#58961;" d="M389.7 291.7L198.2 448.6c-3.7 3-9.1 3-12.8-0.1l-73.3-61.4c-4.4-3.7-4.8-10.3-0.9-14.5l324.1-344.3c5-5.3 13.8-3.6 16.6 3.1 64.4 160.1 244.3 452.8 463.2 664.7 3 2.9 3.9 7.2 2.3 11l-13.7 33c-2.4 5.8-9.5 8-14.7 4.5-243.2-157.7-419.4-353.5-499.3-452.9z"  horiz-adv-x="1024" />
      
      <glyph glyph-name="deletebtn" unicode="&#58962;" d="M864 640H160a32 32 0 0 0-32 32 32 32 0 0 0 32 32h704a32 32 0 0 0 32-32 32 32 0 0 0-32-32z m-256 128h-192v-64h-64V736a96 96 0 0 0 96 96h128a96 96 0 0 0 96-96v-32h-64V768z m192-736a96 96 0 0 0-96-96H320a96 96 0 0 0-96 96L192 608h640zM384 544H256l32-544h96V544z m192 0h-128v-544h128V544z m64 0v-544h96l32 544h-128z"  horiz-adv-x="1024" />
      
    </font>
</defs>
</svg>
